<?xml version="1.0" encoding="UTF-8"?>
<svg width="289px" height="370px" viewBox="0 0 289 370" version="1.1" xmlns="http://www.w3.org/2000/svg" xmlns:xlink="http://www.w3.org/1999/xlink">
    <!-- Generator: Sketch 55.2 (78181) - https://sketchapp.com -->
    <title>编组</title>
    <desc>Created with Sketch.</desc>
    <g id="Page-1" stroke="none" stroke-width="1" fill="none" fill-rule="evenodd">
        <g id="3d试衣花型信息" transform="translate(-43.000000, -158.000000)">
            <g id="编组" transform="translate(43.000000, 156.000000)">
                <g id="放大缩小手势" transform="translate(1.000000, 0.000000)">
                    <g id="shoushi" transform="translate(10.833333, 3.916667)" fill="#FFFFFF" fill-rule="nonzero">
                        <path d="M27.5619944,30.9099591 C27.643733,30.9099591 27.7268762,30.8972986 27.8086149,30.8706029 C28.0041822,30.8079129 28.1661689,30.6714126 28.2586968,30.4913351 C28.3512246,30.3112576 28.3666567,30.102466 28.301575,29.9112053 C28.1237723,29.3913252 26.409507,27.1794268 25.0022533,25.4153024 C24.7371001,25.0841543 24.2491237,25.0242206 23.9087526,25.2809977 C23.7455088,25.4036236 23.6390648,25.5850961 23.6131095,25.7850287 C23.5871542,25.9849613 23.6438413,26.1867646 23.7705553,26.3455272 C25.1342712,28.0554344 26.6448919,30.0358775 26.8311213,30.4142973 C26.9453061,30.7127678 27.2366728,30.910366 27.5619944,30.9099591 L27.5619944,30.9099591 Z M29.9138776,28.1556124 C29.9945161,28.5690886 30.4019365,28.8402665 30.8239579,28.7613594 C31.0264655,28.724981 31.2058876,28.6111719 31.322656,28.4450303 C31.4394244,28.2788888 31.4839479,28.0740616 31.4464078,27.8757194 C31.2627064,26.9221014 28.3681457,22.0304401 27.4853117,20.5539146 C27.267143,20.1913577 26.7914112,20.0689917 26.419619,20.2798011 C26.2413247,20.3801802 26.1112994,20.5461373 26.0584043,20.7408356 C26.0055092,20.9355338 26.0341204,21.1428651 26.1378874,21.3168091 C27.8900727,24.2483932 29.7821407,27.6101374 29.9138776,28.1556124 L29.9138776,28.1556124 Z M32.4407547,25.8804147 C32.4414241,26.0823093 32.5239225,26.2756741 32.6701012,26.4179706 C32.8162798,26.5602671 33.0141642,26.6398389 33.2202215,26.6391859 C33.4263014,26.639912 33.6242291,26.5603638 33.7704239,26.4180515 C33.9166188,26.2757393 33.9990935,26.0823319 33.9996884,25.8804147 C33.9996884,24.7787314 32.6064791,21.3335971 32.3272755,20.6538175 C32.1657035,20.264007 31.7132157,20.0751605 31.3143899,20.2310881 C31.1228646,20.3049338 30.9693045,20.4505682 30.8877379,20.6357194 C30.8061713,20.8208707 30.803334,21.0302489 30.8798548,21.2174567 C31.6475242,23.0839609 32.4407547,25.3387928 32.4407547,25.8804147 L32.4407547,25.8804147 Z" id="形状"></path>
                        <path d="M37.6245604,26.4060743 C37.5912507,26.3768046 37.5554473,26.3503795 37.5175416,26.3270878 C37.6377621,25.911514 37.7023666,25.5116274 37.7074226,25.1343084 C37.7568591,24.6689209 38.1464521,20.7826179 37.569787,18.557234 C35.710583,11.3845955 30.4911044,6.35615256 26.7215746,5.81040235 C24.5767066,5.49968527 23.0955791,6.17836403 22.3354936,6.67650217 C20.8175697,5.57014017 18.7516314,5.47106294 16.4362638,6.41174588 C15.1014795,6.95419354 14.0520783,7.68598868 13.5453546,8.07404103 C13.3531291,8.22024565 13.1664911,8.37336964 12.9858238,8.5330987 C12.4001704,7.65241251 11.4350359,6.24579158 10.347153,4.84027146 C8.59693388,2.57828405 6.36948447,0.0143863815 4.67094893,0.26923498 C3.21510147,0.487480004 1.87357581,1.45595961 0.989899141,2.92670553 C-0.122702,4.77862342 -0.293763375,7.08024171 0.520814611,9.24177586 C1.15028674,10.9128779 3.4308242,13.3587086 6.07118038,16.1909403 C8.99888599,19.3305865 12.5675801,23.1582689 13.2807572,25.5881371 C11.3976776,25.5963935 7.22310597,25.8454626 4.94172587,27.7628815 C2.71989424,29.6304866 2.23423721,32.600876 2.49321685,34.5771908 C2.68562578,36.0435333 3.28869438,37.1196217 4.1482146,37.5296912 C4.73534059,37.8113286 5.38095969,37.956192 6.03466478,37.952971 C7.64893364,37.952971 9.23876512,37.1336577 10.6889948,36.3864505 C11.9496244,35.7369444 13.1400318,35.1240419 14.0352249,35.2038541 C14.4287504,35.2393567 14.9717087,35.3169672 15.6009,35.4072376 C17.3272435,35.6538297 19.8546823,36.0160119 22.4649834,35.9447313 C22.9267648,37.1248508 24.4430034,39.1663915 27.0575178,39.1663915 C27.2945881,39.1663915 27.5412086,39.1496034 27.7962558,39.1138255 C29.4481637,38.8826454 31.847798,37.7350012 34.215692,36.0451846 C35.3072264,35.2657773 36.2861244,34.4406844 37.0467718,33.6588003 C37.9203364,32.7610508 38.4739686,31.955223 38.6922193,31.2627834 C39.5803902,28.4492663 38.6939046,27.3602427 37.6245604,26.4060743 L37.6245604,26.4060743 Z M15.8281391,33.8797974 C15.1770385,33.786775 14.6146989,33.7061371 14.179321,33.6670567 C12.820942,33.5440358 11.429699,34.2612446 9.95727908,35.020286 C8.19133019,35.9304201 6.36499024,36.8716535 4.8366734,36.1417848 C4.55325643,36.0066546 4.18725811,35.3978802 4.05411678,34.3804125 C3.82856297,32.6592214 4.33219684,30.3080645 5.96584703,28.9344693 C7.89639681,27.311805 11.7951355,27.1331908 13.4172692,27.1331908 C13.8644444,27.1331908 14.1385921,27.1466763 14.1506703,27.147502 C14.3665886,27.1585443 14.5777404,27.0826894 14.7352002,26.9375134 C14.8922238,26.7917325 14.9811938,26.5891257 14.9812589,26.3771768 C14.9812589,23.4604543 11.0417913,19.2356375 7.23237529,15.1498041 C4.9150414,12.6646178 2.51933951,10.0949406 1.99604341,8.7064838 C1.34606637,6.98143974 1.47330908,5.16034586 2.34490748,3.70969057 C2.97803119,2.65589449 3.93642428,1.93978653 4.90830009,1.79419815 C5.25154641,1.74383392 6.56498317,2.50672833 9.08736596,5.76499196 C10.7850588,7.95707488 12.2237721,10.2270435 12.2380974,10.2496111 C12.2456814,10.2617205 12.254389,10.2732795 12.2628156,10.2851138 L12.2715232,10.2977736 L12.2788263,10.3074062 C12.310005,10.3506148 12.3437117,10.391897 12.3796654,10.4309774 C13.2804763,11.4112913 14.9290136,13.5029209 18.1867637,15.0221046 C18.5892776,15.1998931 19.3906538,15.3639209 19.4159338,15.3030985 C19.4414947,15.2422762 17.9300312,14.1604082 17.6533556,13.8744604 C17.2466284,13.4544831 14.8478367,11.0108542 13.7886045,9.91219823 C14.4293122,9.23351941 16.6598514,7.61113035 18.846291,7.34417238 C19.8942876,7.21647287 20.7495945,7.41572815 21.4481654,7.95212104 C21.5155787,8.12688221 21.6709103,8.29035957 21.8650046,8.43787449 C21.9672482,8.51576018 23.8037002,9.60781106 24.9570302,10.2220897 C25.5907157,10.5597778 26.5957364,10.8382948 26.5957364,10.7419697 C26.5957363,10.6456446 25.6620615,9.94990257 25.2845467,9.65432232 C24.6848488,9.18425605 23.93319,8.45191045 23.3113018,7.890473 C23.8604397,7.55471141 24.9241662,7.10968965 26.4920883,7.33646634 C29.3431113,7.749288 34.2493986,12.010433 36.0451217,18.9367547 C36.5762828,20.9857261 36.1434329,24.9669781 36.1389387,25.0071594 C36.1359012,25.0348558 36.1344009,25.0626935 36.1344445,25.0905493 C36.1344445,26.4214863 34.9580815,28.3226676 33.0643281,30.0529408 C30.9464254,31.9879735 28.2414648,33.436427 25.6426802,34.0264867 C22.2428003,34.7984632 18.2272117,34.2232651 15.8281391,33.8797974 L15.8281391,33.8797974 Z M37.1891825,30.8067531 C36.8953726,31.7383539 35.3282932,33.3417532 33.2896011,34.7973624 C31.152317,36.3231512 28.9622258,37.3918088 27.5735108,37.5863854 C25.6407139,37.8563708 24.585695,36.5518544 24.1590247,35.8316182 C24.7789466,35.7644658 25.3949361,35.6664895 25.9974429,35.5299832 C28.8568925,34.8807523 31.8233608,33.2963428 34.1370431,31.1824208 C35.3271696,30.0947734 36.2614062,28.9407993 36.8759913,27.8322355 C37.445915,28.38982 37.7582635,29.0038234 37.1891825,30.8067531 L37.1891825,30.8067531 Z" id="形状"></path>
                    </g>
                    <path d="M20.2485584,13.8765522 C20.7168639,12.9037662 20.9815402,11.7982145 20.9815402,10.6258632 C20.9815402,6.73017832 18.0589545,3.57210172 14.4537624,3.57210172 C10.8485703,3.57210172 7.92598465,6.73017832 7.92598465,10.6258632 C7.92598465,11.8548285 8.21684116,13.0103867 8.72822893,14.0165462" id="路径" stroke="#FFFFFF" stroke-width="1.3" stroke-linecap="round" transform="translate(14.453762, 8.794324) rotate(-40.000000) translate(-14.453762, -8.794324) "></path>
                    <path d="M22.3006987,43.005644 C22.7690042,42.032858 23.0336805,40.9273063 23.0336805,39.754955 C23.0336805,35.8592701 20.1110949,32.7011935 16.5059027,32.7011935 C12.9007106,32.7011935 9.97812497,35.8592701 9.97812497,39.754955 C9.97812497,40.9839203 10.2689815,42.1394785 10.7803692,43.145638" id="路径复制" stroke="#FFFFFF" stroke-width="1.3" stroke-linecap="round" transform="translate(16.505903, 37.923416) rotate(-133.000000) translate(-16.505903, -37.923416) "></path>
                    <path d="M3.36289689,22.3360307 C3.66858423,22.5546564 4.16422161,22.5546564 4.470371,22.3360307 L7.6041137,20.0979592 C7.82796806,19.9383596 7.894961,19.6972739 7.77356143,19.4881719 C7.65239537,19.2789633 7.36657511,19.1426438 7.05008793,19.1426438 L4.96127259,19.1426438 L4.96127259,15.4125661 C4.96127259,15.0393675 4.43854899,14.6666667 3.91651844,14.6666667 C3.39425685,14.6666667 2.8719953,15.0393674 2.8719953,15.4125661 L2.8719953,19.1426438 L0.783179958,19.1426438 C0.466404043,19.1426438 0.180814777,19.2787974 0.0594754567,19.4881719 C-0.061543075,19.6973513 0.0055799366,19.9383302 0.229327448,20.0979592 L3.36289689,22.3360307 Z" id="路径" fill="#FFFFFF" fill-rule="nonzero"></path>
                    <path d="M0.783255927,28.4683073 L2.8720757,28.4683073 L2.8720757,32.198387 C2.8720757,32.5715817 3.39433842,32.9444444 3.91660109,32.9444444 C4.43863276,32.9444444 4.96135752,32.5715817 4.96135752,32.198387 L4.96135752,28.4683073 L7.0501773,28.4683073 C7.36666515,28.4683073 7.65248603,28.3321966 7.77365235,28.1228243 C7.89499193,27.9139498 7.82776713,27.6731737 7.60420431,27.5130435 L4.47045483,25.2752031 C4.16430483,25.0564138 3.66866639,25.0564138 3.36297839,25.2752031 L0.22917118,27.5130435 C0.00564041833,27.6727546 -0.0614545614,27.9136298 0.059318824,28.1228243 C0.180889406,28.3321551 0.466306022,28.4683073 0.783255927,28.4683073 L0.783255927,28.4683073 Z" id="路径" fill="#FFFFFF" fill-rule="nonzero"></path>
                </g>
                <g id="移动花型手势" transform="translate(0.000000, 86.000000)">
                    <g id="放大缩小手势复制" transform="translate(3.765957, 0.000000)" fill="#FFFFFF" fill-rule="nonzero">
                        <g id="shoushi" transform="translate(27.617021, 26.500000) rotate(-321.000000) translate(-27.617021, -26.500000) translate(8.787234, 7.395349)">
                            <path d="M26.5014378,29.1816932 C26.5800312,29.1816932 26.6599751,29.1697406 26.7385686,29.1445375 C26.9266107,29.0853527 27.0823643,28.9564845 27.1713318,28.7864757 C27.2602993,28.6164669 27.2751376,28.4193494 27.2125601,28.2387827 C27.0415991,27.7479706 25.3932969,25.6597459 24.0401929,23.9942587 C23.7852425,23.6816261 23.3160429,23.6250435 22.9887689,23.8674635 C22.8318066,23.9832329 22.7294584,24.1545588 22.7045018,24.3433126 C22.6795453,24.5320664 22.7340512,24.7225862 22.8558893,24.872472 C24.1671308,26.4867733 25.6196245,28.356484 25.7986879,28.7137453 C25.908479,28.9955275 26.1886343,29.1820774 26.5014378,29.1816932 L26.5014378,29.1816932 Z M28.762823,26.5813501 C28.8403586,26.9717076 29.2321019,27.2277232 29.6378843,27.153228 C29.8325997,27.1188836 30.0051178,27.0114379 30.1173931,26.8545858 C30.2296684,26.6977337 30.2724787,26.504359 30.236383,26.3171067 C30.0597503,25.4168083 27.2765692,20.798654 26.4277058,19.4046854 C26.217932,19.0624001 25.7605058,18.9468759 25.4030198,19.1458983 C25.2315861,19.2406649 25.106564,19.3973429 25.0557042,19.581155 C25.0048445,19.7649671 25.0323548,19.9607059 25.1321289,20.1249241 C26.8168919,22.8925948 28.6361552,26.0663742 28.762823,26.5813501 L28.762823,26.5813501 Z M31.1924685,24.4333653 C31.1931121,24.6239714 31.2724362,24.8065246 31.41299,24.9408649 C31.5535438,25.0752052 31.7438138,25.1503279 31.9419423,25.1497114 C32.1400925,25.1503969 32.3304041,25.0752965 32.4709735,24.9409413 C32.6115429,24.8065861 32.690844,24.6239927 32.6914161,24.4333653 C32.6914161,23.3932803 31.3518161,20.1407735 31.0833559,19.4990024 C30.9280011,19.1309873 30.4929245,18.9526998 30.1094451,19.099909 C29.9252895,19.1696257 29.7776382,19.3071173 29.6992102,19.4819162 C29.6207822,19.6567151 29.6180541,19.8543864 29.6916304,20.0311268 C30.4297607,21.7932694 31.1924685,23.9220271 31.1924685,24.4333653 L31.1924685,24.4333653 Z" id="形状"></path>
                            <path d="M36.1768068,24.9296338 C36.1447789,24.9020006 36.1103532,24.8770529 36.073906,24.8550636 C36.1895006,24.4627257 36.2516191,24.085198 36.2564806,23.728976 C36.3040148,23.2896096 36.6786167,19.6206011 36.1241411,17.5196449 C34.3364773,10.7480496 29.3178388,6.00076155 25.6933565,5.48552582 C23.6310207,5.19218184 22.2068855,5.83291369 21.4760473,6.30319947 C20.0165315,5.2586974 18.0300883,5.16515987 15.8038136,6.05324649 C14.5203904,6.56536431 13.5113691,7.25624265 13.0241436,7.62259787 C12.8393147,7.76062776 12.6598584,7.90519014 12.486143,8.05598828 C11.9230248,7.22454382 10.9950277,5.89657117 9.94900538,4.56963778 C8.2661329,2.43412468 6.12439339,0.013581997 4.49121572,0.254181268 C3.09138774,0.460223576 1.80148258,1.37455267 0.951808862,2.76306489 C-0.117980555,4.51143666 -0.282459669,6.68436476 0.500774212,8.72504124 C1.10602492,10.3027071 3.29880969,12.6117842 5.83756774,15.2856576 C8.65261831,18.2497571 12.0839929,21.8634226 12.7697276,24.1574297 C10.9591069,24.1652245 6.94516843,24.4003674 4.75157344,26.2105778 C2.61523557,27.9737597 2.14826611,30.778066 2.39728049,32.6438793 C2.58228572,34.0282343 3.16214887,35.0441555 3.98859566,35.4312968 C4.55312965,35.697187 5.17390601,35.8339507 5.80245722,35.8309098 C7.35461071,35.8309098 8.88326714,35.0574067 10.2776935,34.351978 C11.4898154,33.7387877 12.6344172,33.1601543 13.4951642,33.235504 C13.8735472,33.2690216 14.3956131,33.3422926 15.0005937,33.4275157 C16.6605094,33.6603202 19.090695,34.0022517 21.6005544,33.9349566 C22.044567,35.0490922 23.5024623,36.9764844 26.016373,36.9764844 C26.244321,36.9764844 26.4814518,36.960635 26.726685,36.9268575 C28.3150293,36.7086034 30.6223282,35.6251273 32.8991081,34.0297932 C33.9486414,33.2939649 34.8898725,32.5150054 35.6212509,31.7768386 C36.4612017,30.929285 36.9935307,30.1685133 37.2033833,29.5147901 C38.0573783,26.8585849 37.2050038,25.8304518 36.1768068,24.9296338 L36.1768068,24.9296338 Z M15.219089,31.9854792 C14.593042,31.8976579 14.0523406,31.8215288 13.6337156,31.7846334 C12.3276056,31.668491 10.9898962,32.3455986 9.57413344,33.0621998 C7.87613641,33.9214456 6.1200721,34.8100519 4.65056328,34.1209923 C4.37805191,33.9934176 4.02613682,33.4186816 3.89811863,32.4581034 C3.68124388,30.8331492 4.16549845,28.6134523 5.7362875,27.3166588 C7.59255176,25.7847224 11.3412711,25.6160951 12.9009868,25.6160951 C13.3309552,25.6160951 13.5945539,25.6288266 13.6061674,25.6296061 C13.8137774,25.6400309 14.0168043,25.5684173 14.1682052,25.4313585 C14.3191866,25.2937286 14.4047332,25.1024501 14.4047958,24.902352 C14.4047958,22.1487119 10.6169148,18.160117 6.95408109,14.3027344 C4.72591577,11.9565021 2.42239797,9.53050309 1.91923776,8.21967891 C1.29427115,6.5910871 1.41661769,4.87181589 2.2546779,3.50227095 C2.86343968,2.50739568 3.78495481,1.83132741 4.71943386,1.6938793 C5.04947242,1.64633108 6.31236951,2.36656985 8.73769367,5.44265446 C10.3700611,7.51217163 11.7534142,9.65521972 11.7671883,9.67652547 C11.7744805,9.68795782 11.782853,9.69887053 11.7909554,9.71004311 L11.7993279,9.7219951 L11.80635,9.73108904 C11.8363289,9.77188177 11.8687386,9.81085572 11.9033089,9.84775109 C12.7694575,10.7732527 14.3545609,12.7479333 17.4869561,14.1821749 C17.8739817,14.3500228 18.6445218,14.5048793 18.668829,14.4474577 C18.6934064,14.3900361 17.2401024,13.3686585 16.974073,13.0986989 C16.5829963,12.7022038 14.2765076,10.3952053 13.2580334,9.35797834 C13.8740874,8.71724643 16.0187978,7.18556987 18.1211055,6.9335383 C19.1287764,6.81297884 19.9511719,7.00109317 20.6228625,7.50749477 C20.6876819,7.67248454 20.8370364,7.82682141 21.0236622,7.96608834 C21.1219715,8.03961921 22.8877588,9.07061035 23.9967099,9.65054286 C24.6060118,9.96934986 25.5723604,10.2322942 25.5723604,10.1413549 C25.5723603,10.0504156 24.6746123,9.39357452 24.3116239,9.11452102 C23.7350017,8.67073753 23.012266,7.97933951 22.4143074,7.44929366 C22.9423151,7.13230548 23.9651105,6.71216618 25.4727006,6.92626312 C28.2140192,7.31600272 32.9315177,11.3388947 34.6581433,17.8779455 C35.1688658,19.812353 34.7526716,23.5710016 34.7483503,23.6089362 C34.7454297,23.6350841 34.7439871,23.6613652 34.744029,23.6876636 C34.744029,24.944184 33.6129312,26.7390647 31.7920475,28.3725933 C29.7556395,30.1994326 27.1547629,31.5668989 24.6559768,32.1239667 C21.3869207,32.8527797 17.5258478,32.3097426 15.219089,31.9854792 L15.219089,31.9854792 Z M35.7581818,29.0842577 C35.4756774,29.96377 33.9688975,31.4775186 32.0086522,32.8517404 C29.9536086,34.2922179 27.8477898,35.3011238 26.5125111,35.484821 C24.6540862,35.7397107 23.6396633,34.5081337 23.2294108,33.828168 C23.8254788,33.7647703 24.4177656,33.6722722 24.9970886,33.5433983 C27.7465096,32.9304678 30.5988313,31.4346473 32.8234855,29.4389208 C33.9678172,28.4120869 34.8661054,27.3226348 35.4570419,26.2760541 C36.0050355,26.8024624 36.3053652,27.3821351 35.7581818,29.0842577 L35.7581818,29.0842577 Z" id="形状"></path>
                        </g>
                    </g>
                    <path d="M34.2500842,10.273181 C34.7003698,9.35478629 34.9548617,8.31104922 34.9548617,7.20424753 C34.9548617,3.52638172 32.144734,0.544882383 28.6782659,0.544882383 C25.2117978,0.544882383 22.4016702,3.52638172 22.4016702,7.20424753 C22.4016702,8.36449772 22.6813348,9.45544534 23.1730449,10.4053475" id="路径" stroke="#FFFFFF" stroke-width="1.235" stroke-linecap="round"></path>
                    <path d="M10.0482131,18.3335708 C10.3421379,18.5399725 10.8187036,18.5399725 11.1130727,18.3335708 L14.1262323,16.2206364 C14.341473,16.0699605 14.4058881,15.8423545 14.2891599,15.6449441 C14.1726561,15.447433 13.8978339,15.3187354 13.5935249,15.3187355 L11.5850849,15.3187355 L11.5850849,11.7972173 C11.5850849,11.4448853 11.0824752,11.0930233 10.5805318,11.0930233 C10.0783663,11.0930233 9.57620084,11.4448852 9.57620084,11.7972173 L9.57620084,15.3187355 L7.56776092,15.3187355 C7.26317421,15.3187355 6.98857412,15.4472763 6.87190381,15.6449441 C6.75554195,15.8424276 6.82008214,16.0699327 7.03522008,16.2206364 L10.0482131,18.3335708 Z" id="路径" fill="#FFFFFF" fill-rule="nonzero"></path>
                    <path d="M16.3344632,12.2362045 C16.6230587,12.4464177 17.0909835,12.4464177 17.3800152,12.2362045 L20.3385412,10.0842516 C20.5498792,9.9307933 20.6131264,9.69898424 20.4985146,9.49792833 C20.3841233,9.29676986 20.1142841,9.16569574 19.8154926,9.16569577 L17.8434691,9.16569577 L17.8434691,5.57914751 C17.8434691,5.2203092 17.3499725,4.86194953 16.8571302,4.86194953 C16.3640697,4.86194953 15.8710094,5.22030917 15.8710094,5.57914751 L15.8710094,9.16569577 L13.8989858,9.16569577 C13.5999217,9.16569577 13.3303006,9.29661031 13.2157457,9.49792833 C13.1014937,9.69905866 13.1648636,9.93076501 13.3761008,10.0842516 L16.3344632,12.2362045 Z" id="路径复制-2" fill="#FFFFFF" fill-rule="nonzero" transform="translate(16.857270, 8.627907) rotate(-90.000000) translate(-16.857270, -8.627907) "></path>
                    <path d="M3.24315055,12.2362045 C3.53174603,12.4464177 3.99967087,12.4464177 4.28870256,12.2362045 L7.24722857,10.0842516 C7.45856658,9.9307933 7.52181375,9.69898424 7.40720198,9.49792833 C7.29281067,9.29676986 7.02297145,9.16569574 6.72418,9.16569577 L4.75215641,9.16569577 L4.75215641,5.57914751 C4.75215641,5.2203092 4.25865981,4.86194953 3.76581751,4.86194953 C3.27275708,4.86194953 2.7796967,5.22030917 2.7796967,5.57914751 L2.7796967,9.16569577 L0.807673112,9.16569577 C0.508609062,9.16569577 0.238987924,9.29661031 0.124433039,9.49792833 C0.0101810059,9.69905866 0.0735509743,9.93076501 0.28478811,10.0842516 L3.24315055,12.2362045 Z" id="路径复制-3" fill="#FFFFFF" fill-rule="nonzero" transform="translate(3.765957, 8.627907) scale(-1, 1) rotate(-90.000000) translate(-3.765957, -8.627907) "></path>
                    <path d="M7.56783397,1.93692744 L9.57627815,1.93692744 L9.57627815,5.4584475 C9.57627815,5.81077575 10.0784447,6.1627907 10.5806113,6.1627907 C11.0825557,6.1627907 11.5851666,5.81077575 11.5851666,5.4584475 L11.5851666,1.93692744 L13.5936108,1.93692744 C13.8979205,1.93692744 14.1727433,1.80842711 14.2892473,1.61076138 C14.4059178,1.41356567 14.3412798,1.18625205 14.1263194,1.0350752 L11.1131533,-1.07764102 C10.8187837,-1.28419718 10.3422169,-1.28419718 10.0482914,-1.07764102 L7.03506982,1.0350752 C6.82014029,1.18585638 6.75562705,1.41326361 6.87175321,1.61076138 C6.98864588,1.80838792 7.26307996,1.9369274 7.56783397,1.93692744 L7.56783397,1.93692744 Z" id="路径" fill="#FFFFFF" fill-rule="nonzero"></path>
                </g>
                <text id="扩张或缩小模特可以改变花型大小" font-family="PingFang-SC-Bold, PingFang SC" font-size="14" font-weight="bold" letter-spacing="0.1900001" fill="#FFFFFF">
                    <tspan x="77" y="30">扩张或缩小模特可以改变花型大小</tspan>
                </text>
                <text id="滑动模特可以改变花型位置" font-family="PingFang-SC-Bold, PingFang SC" font-size="14" font-weight="bold" letter-spacing="0.1900001" fill="#FFFFFF">
                    <tspan x="77" y="119">滑动模特可以改变花型位置</tspan>
                </text>
                <text id="开始体验" font-family="PingFang-SC-Bold, PingFang SC" font-size="14" font-weight="bold" letter-spacing="0.1900001" fill="#FFFFFF">
                    <tspan x="116" y="357">开始体验</tspan>
                </text>
                <rect id="矩形" stroke="#FFFFFF" stroke-width="2" x="65" y="333" width="159" height="38" rx="4"></rect>
            </g>
        </g>
    </g>
</svg>