<?xml version="1.0" encoding="UTF-8"?>
<svg width="16px" height="16px" viewBox="0 0 16 16" version="1.1" xmlns="http://www.w3.org/2000/svg" xmlns:xlink="http://www.w3.org/1999/xlink">
    <!-- Generator: Sketch 53 (72520) - https://sketchapp.com -->
    <title>地址薄</title>
    <desc>Created with Sketch.</desc>
    <g id="Page-1" stroke="none" stroke-width="1" fill="none" fill-rule="evenodd">
        <g id="个人中心" transform="translate(-28.000000, -230.000000)">
            <g id="地址薄" transform="translate(28.000000, 230.000000)">
                <rect id="矩形" fill="#000000" opacity="0" x="0" y="0" width="16" height="16"></rect>
                <path d="M9.77778125,1.33332812 L10.6666719,1.33332812 L10.6666719,12 L9.77776563,12 L9.77776563,1.33332812 L9.77778125,1.33332812 Z M5.33332813,3.5555625 L6.22223438,3.5555625 L6.22223438,14.6666563 L5.33332813,14.6666563 L5.33332813,3.5555625 Z" id="形状" fill="#BFA065" fill-rule="nonzero"></path>
                <path d="M5.6,3.5555625 L10.3111094,0.888890625 L14.596753,3.26980842 C14.9142178,3.44617808 15.1111094,3.78079846 15.1111094,4.14396529 L15.1111094,13.3959836 C15.1111094,13.9482684 14.6633941,14.3959836 14.1111094,14.3959836 C13.9384628,14.3959836 13.7687571,14.3512855 13.6185103,14.26624 L10.4,12.4444375 L5.68889063,15.1111094 L1.40324697,12.7301916 C1.08578219,12.5538219 0.888890625,12.2192015 0.888890625,11.8560347 L0.888890625,2.60401636 C0.888890625,2.05173161 1.33660588,1.60401636 1.88889062,1.60401636 C2.06153719,1.60401636 2.23124294,1.64871445 2.38148971,1.73375999 L5.6,3.5555625 Z M1.77778125,3.26906158 L1.77778125,11.3240324 C1.77778125,11.6864937 1.97391524,12.0205793 2.29041566,12.1972305 L5.6,14.0444375 L10.3111094,11.3777813 L13.3896467,13.0960194 C13.6307741,13.230601 13.9353464,13.1442285 14.0699279,12.9031011 C14.1115027,12.8286123 14.1333281,12.7447252 14.1333281,12.6594196 L14.1333281,4.67598108 C14.1333281,4.31352098 13.9371953,3.97943615 13.6206964,3.80278458 L10.3111094,1.9555625 L5.6,4.62221875 L2.52909136,2.83680792 C2.29036425,2.69801318 1.98432232,2.77902437 1.84552759,3.01775147 C1.80115535,3.09407177 1.77778125,3.18077975 1.77778125,3.26906158 Z" id="形状" fill="#BFA065" fill-rule="nonzero"></path>
            </g>
        </g>
    </g>
</svg>