<?xml version="1.0" encoding="UTF-8"?>
<svg width="17px" height="18px" viewBox="0 0 17 18" version="1.1" xmlns="http://www.w3.org/2000/svg" xmlns:xlink="http://www.w3.org/1999/xlink">
    <!-- Generator: Sketch 53 (72520) - https://sketchapp.com -->
    <title>联系客服</title>
    <desc>Created with Sketch.</desc>
    <g id="Page-1" stroke="none" stroke-width="1" fill="none" fill-rule="evenodd">
        <g id="3d试衣复制-copy" transform="translate(-327.000000, -174.000000)">
            <g id="联系客服" transform="translate(327.000000, 174.000000)">
                <g id="添加">
                    <rect id="矩形" fill="#000000" opacity="0" x="0" y="1" width="16" height="16"></rect>
                    <path d="M8.5,16.896923 C4.08173684,16.896923 0.500048,13.3151702 0.500048,8.89690702 C0.500048,4.47864386 4.08173684,0.896923019 8.5,0.896923019 C12.9182952,0.896923019 16.499984,4.47864386 16.499984,8.89690702 C16.499984,13.3151702 12.9182632,16.896923 8.5,16.896923 Z M8.5,1.89695302 C4.63402373,1.89695302 1.500046,5.03093075 1.500046,8.89690702 C1.500046,12.7628833 4.63402373,15.896893 8.5,15.896893 C12.3660083,15.896893 15.499986,12.7628833 15.499986,8.89690702 C15.499986,5.03093075 12.3660083,1.89695302 8.5,1.89695302 Z M11.499994,9.39690602 L8.999967,9.39690602 L8.999967,11.896933 C8.999967,12.1730285 8.77612745,12.396868 8.499968,12.396868 C8.22384055,12.396868 7.999969,12.1730285 7.999969,11.896933 L7.999969,9.39690602 L5.500006,9.39690602 C5.22387855,9.39690602 4.999975,9.17303447 4.999975,8.89690702 C4.999975,8.62081157 5.22387855,8.39694002 5.500006,8.39694002 L7.999969,8.39694002 L7.999969,5.89688102 C7.999969,5.62075357 8.22387255,5.39694602 8.499968,5.39694602 C8.77609545,5.39694602 8.999967,5.62072157 8.999967,5.89688102 L8.999967,8.39694002 L11.499994,8.39694002 C11.7761215,8.39694002 11.999993,8.62081157 11.999993,8.89690702 C11.999993,9.17303447 11.7761535,9.39690602 11.499994,9.39690602 Z" id="形状" stroke="#333333" fill="#333333" fill-rule="nonzero"></path>
                </g>
            </g>
        </g>
    </g>
</svg>