<?xml version="1.0" encoding="UTF-8"?>
<svg width="13px" height="16px" viewBox="0 0 13 16" version="1.1" xmlns="http://www.w3.org/2000/svg" xmlns:xlink="http://www.w3.org/1999/xlink">
    <!-- Generator: Sketch 54 (76480) - https://sketchapp.com -->
    <title>AK-IM验证码</title>
    <desc>Created with Sketch.</desc>
    <g id="Page-1" stroke="none" stroke-width="1" fill="none" fill-rule="evenodd">
        <g id="登录" transform="translate(-22.000000, -303.000000)" fill="#000000">
            <g id="AK-IM验证码" transform="translate(19.000000, 302.000000)">
                <rect id="矩形" opacity="0" x="0" y="0" width="18" height="18"></rect>
                <path d="M15.2462103,2.95833811 L9.9452037,1.07581122 C9.65609961,0.974729594 9.34248441,0.974729594 9.05331522,1.07581122 L3.75234119,2.95833811 C3.30209204,3.11786733 3,3.57426239 3,4.09387591 L3,8.22694758 C3,10.6147933 4.04579087,12.8842786 5.79937652,14.300958 L8.85480131,16.7678535 C9.0432406,16.9210395 9.26624934,17 9.4992676,17 C9.73233468,17 9.95531086,16.9194492 10.1437013,16.7678535 L13.2005909,14.3009401 C14.9541929,12.8858152 16,10.6147754 16,8.22692971 L16,4.09387591 C15.9985352,3.57426239 15.696492,3.11786733 15.2462103,2.95833811 Z M15.0721424,8.25378594 C15.0721424,10.3147826 14.168747,12.2747333 12.6568383,13.4954677 L9.7078724,15.8755228 C9.58556101,15.9734059 9.41295791,15.9750498 9.28926309,15.8755228 L6.3417132,13.4954677 C4.82835591,12.2747333 3.92640909,10.3147826 3.92640909,8.25376807 L3.92640909,4.26759264 C3.92640909,4.10020133 4.02422566,3.95173266 4.16951824,3.90121865 L9.28348524,2.08498358 C9.35312771,2.05987321 9.42596546,2.0470864 9.4992676,2.04710254 C9.57271953,2.04710254 9.64459273,2.05971764 9.71514761,2.08498358 L14.8276823,3.90120079 C14.9729587,3.9517148 15.0708078,4.10018346 15.0708078,4.26757477 L15.07224,8.25378594 L15.0721261,8.25378594 L15.0721424,8.25378594 Z M12.7489421,5.84469193 L6.24964194,5.84469193 C6.15383057,5.84450358 6.06188805,5.88203178 5.99413599,5.94898184 C5.92638394,6.0159319 5.88840132,6.10679089 5.88858327,6.20147667 C5.88858327,6.39912211 6.0496795,6.7289011 6.24964194,6.7289011 L9.05189924,6.7289011 L9.05189924,11.8823031 C9.05189924,12.0799807 9.29932143,12.2392004 9.4992676,12.2392004 C9.69921376,12.2392004 9.96107244,12.0799807 9.96107244,11.8823031 L9.96107244,6.7289011 L12.7489584,6.7289011 C12.9488882,6.7289011 13.1100008,6.39912211 13.1100008,6.20149276 C13.110174,6.10680812 13.0721891,6.01595249 13.0044394,5.94900174 C12.9366897,5.88205099 12.8447523,5.84451645 12.7489421,5.84469193 Z" id="形状" fill-rule="nonzero"></path>
            </g>
        </g>
    </g>
</svg>