<?xml version="1.0" encoding="UTF-8"?>
<svg width="14px" height="14px" viewBox="0 0 14 14" version="1.1" xmlns="http://www.w3.org/2000/svg" xmlns:xlink="http://www.w3.org/1999/xlink">
    <!-- Generator: Sketch 53 (72520) - https://sketchapp.com -->
    <title>形状</title>
    <desc>Created with Sketch.</desc>
    <g id="Page-1" stroke="none" stroke-width="1" fill="none" fill-rule="evenodd" opacity="0.3">
        <g id="添加花型" transform="translate(-38.000000, -108.000000)" fill="#333333" fill-rule="nonzero">
            <g id="13前进-填充-copy-4" transform="translate(45.000000, 115.000000) scale(-1, 1) rotate(-90.000000) translate(-45.000000, -115.000000) translate(37.000000, 107.000000)">
                <path d="M1.9378221,4.49999997 C0.687392514,6.66580752 0.687392514,9.33419248 1.9378221,11.5 C3.18825169,13.6658076 5.49914086,15 8.00000001,15 C11.8659932,14.9999999 14.9999999,11.8659932 14.9999999,8 C14.9999999,4.13400679 11.8659932,1.00000006 8.00000001,1 C5.49914086,0.999999963 3.18825169,2.33419242 1.9378221,4.49999997 Z M7.72467444,10.356 C7.59815286,10.484769 7.41204327,10.535338 7.23775327,10.4883044 C7.06346326,10.4412708 6.92806026,10.303939 6.88349646,10.1290012 C6.83893265,9.95406342 6.89212885,9.76868767 7.02267444,9.644 L8.66667444,8.024 L7.01767444,6.351 C6.88890544,6.22447842 6.83833643,6.03836884 6.88537002,5.86407883 C6.93240361,5.68978883 7.06973544,5.55438582 7.24467323,5.50982202 C7.41961102,5.46525821 7.60498677,5.51845442 7.72967444,5.649 L9.72967444,7.677 C9.9234915,7.87362753 9.92125312,8.1901334 9.72467444,8.384 L7.72467444,10.356 Z" id="形状"></path>
            </g>
        </g>
    </g>
</svg>