<?xml version="1.0" encoding="UTF-8"?>
<svg width="10px" height="10px" viewBox="0 0 10 10" version="1.1" xmlns="http://www.w3.org/2000/svg" xmlns:xlink="http://www.w3.org/1999/xlink">
    <!-- Generator: Sketch 54 (76480) - https://sketchapp.com -->
    <title>取消订单</title>
    <desc>Created with Sketch.</desc>
    <g id="Page-1" stroke="none" stroke-width="1" fill="none" fill-rule="evenodd">
        <g id="售后详情页" transform="translate(-149.000000, -301.000000)" fill="#333333" fill-rule="nonzero">
            <g id="取消订单" transform="translate(149.000000, 301.000000)">
                <path d="M7.39701569,7.04016112 L7.99183777,6.47600995 C8.07112683,6.39868123 8.18909119,6.36699142 8.30057394,6.39307142 C8.41205669,6.41915142 8.49979219,6.49896215 8.53019518,6.60195195 C8.56059816,6.70494175 8.52896004,6.81516031 8.44739191,6.89041582 L7.84338732,7.46357067 L8.44739191,8.03696245 C8.53076871,8.11187204 8.56377201,8.22293412 8.53356998,8.32696724 C8.50336795,8.43100036 8.41472608,8.51158949 8.30210871,8.53740121 C8.18949135,8.56321292 8.07066802,8.53017448 7.99183777,8.45113138 L7.39701569,7.88698021 L6.8021936,8.45113138 C6.72290454,8.5284601 6.60494018,8.56014991 6.49345743,8.53406991 C6.38197468,8.50798991 6.29423918,8.42817918 6.26383619,8.32518938 C6.23343321,8.22219958 6.26507133,8.11198102 6.34663946,8.03672551 L6.95064405,7.46357067 L6.34663946,6.89017889 C6.26326272,6.81526929 6.23025947,6.70420724 6.2604615,6.60017415 C6.29066353,6.49614106 6.37930538,6.41555196 6.49192271,6.38974023 C6.60454003,6.36392851 6.72336333,6.3969669 6.8021936,6.47600995 L7.39701569,7.04016112 L7.39701569,7.04016112 Z M4.16579518,8.7667338 C4.37710167,8.76673381 4.54839942,8.92585545 4.54839942,9.12214193 C4.54839942,9.31842841 4.37710167,9.47755005 4.16579518,9.47755006 L1.65795179,9.47755006 C1.21823563,9.47755006 0.796529106,9.31528979 0.485602832,9.02646466 C0.174676558,8.73763953 -2.90677749e-09,8.34590858 0,7.93744817 L0,1.54010188 C7.78756107e-17,0.689527099 0.7422903,-5.42550643e-17 1.65795179,0 L7.01441143,0 C7.93007291,3.61700429e-17 8.67236321,0.689527099 8.67236321,1.54010188 L8.67236321,4.24783793 C8.67232745,4.44410093 8.50104017,4.60318591 8.28975896,4.60318591 C8.07847775,4.60318591 7.90719046,4.44410093 7.9071547,4.24783793 L7.9071547,1.54010188 C7.90715471,1.32016166 7.8130981,1.10922961 7.64567625,0.953708382 C7.47825441,0.798187157 7.25118166,0.710816243 7.01441143,0.710816246 L1.65795179,0.710816246 C1.42118155,0.710816246 1.19410881,0.798187161 1.02668697,0.953708386 C0.859265127,1.10922961 0.765208518,1.32016166 0.765208521,1.54010188 L0.765208521,7.93744817 C0.765208518,8.15738839 0.859265127,8.36832044 1.02668697,8.52384166 C1.19410881,8.67936289 1.42118155,8.7667338 1.65795179,8.7667338 L4.16579518,8.7667338 Z M2.16809081,2.84279113 C1.9568096,2.84275791 1.7855513,2.68364601 1.7855513,2.48738301 C1.7855513,2.29112001 1.9568096,2.1320081 2.16809081,2.13197489 L6.2492029,2.13197489 C6.46048411,2.1320081 6.63174241,2.29112001 6.63174241,2.48738301 C6.63174241,2.68364601 6.46048411,2.84275791 6.2492029,2.84279113 L2.16809081,2.84279113 L2.16809081,2.84279113 Z M2.16809081,4.73830115 C1.95678431,4.73830115 1.78548655,4.57917951 1.78548655,4.38289302 C1.78548655,4.18660653 1.95678431,4.0274849 2.16809081,4.0274849 L6.2492029,4.0274849 C6.4605094,4.0274849 6.63180716,4.18660653 6.63180716,4.38289302 C6.63180716,4.57917951 6.4605094,4.73830115 6.2492029,4.73830115 L2.16809081,4.73830115 Z M2.16809081,6.63333728 C2.03138405,6.63335877 1.90505189,6.56562307 1.83669183,6.45565058 C1.76833177,6.3456781 1.76833177,6.21018021 1.83669183,6.10020773 C1.90505189,5.99023524 2.03138405,5.92249954 2.16809081,5.92252103 L3.69850785,5.92252103 C3.90978906,5.92255425 4.08104735,6.08166616 4.08104735,6.27792916 C4.08104735,6.47419215 3.90978906,6.63330406 3.69850785,6.63333728 L2.16809081,6.63333728 L2.16809081,6.63333728 Z M7.26948093,10 C5.76151,10 4.53896187,8.86435256 4.53896187,7.46357067 C4.53896187,6.06278878 5.76151001,4.92714133 7.26948093,4.92714133 C8.77745184,4.92714133 10,6.06278877 10,7.46357067 C10,8.86435257 8.77745185,10 7.26948093,10 Z M7.26948093,9.40765312 C8.42532747,9.40765312 9.36232623,8.53725776 9.36232623,7.46357067 C9.36232623,6.38988357 8.42532747,5.51948821 7.26948093,5.51948821 C6.1136344,5.51948823 5.17663567,6.38988359 5.17663567,7.46357067 C5.17663567,8.53725774 6.1136344,9.4076531 7.26948093,9.40765312 L7.26948093,9.40765312 Z" id="形状"></path>
            </g>
        </g>
    </g>
</svg>