<?xml version="1.0" encoding="UTF-8"?>
<svg width="21px" height="17px" viewBox="0 0 21 17" version="1.1" xmlns="http://www.w3.org/2000/svg" xmlns:xlink="http://www.w3.org/1999/xlink">
    <!-- Generator: Sketch 54 (76480) - https://sketchapp.com -->
    <title>照相机（上传体型照片）</title>
    <desc>Created with Sketch.</desc>
    <g id="Page-1" stroke="none" stroke-width="1" fill="none" fill-rule="evenodd">
        <g id="面料-筛选" transform="translate(-325.000000, -93.000000)">
            <g id="筛选弹窗" transform="translate(80.000000, 64.000000)">
                <g id="搜索-copy" transform="translate(15.000000, 20.000000)">
                    <g id="照相机（上传体型照片）" transform="translate(229.000000, 6.000000)">
                        <rect id="矩形" fill="#000000" opacity="0" x="0" y="0" width="23" height="23"></rect>
                        <path d="M20.4546667,5.9931049 L17.8494603,5.9931049 L15.7524444,3.83333333 L10.6807619,3.83333333 L8.56768254,5.9931049 L2.54533333,5.9931049 C1.84584127,5.9931049 1.27777778,6.57222817 1.27777778,7.28866933 L1.27777778,17.8725948 C1.27777778,18.5875434 1.84584127,19.1666667 2.54533333,19.1666667 L20.4546667,19.1666667 C21.1541587,19.1666667 21.7222222,18.5860508 21.7222222,17.8725948 L21.7222222,7.28866933 C21.7222222,6.57222817 21.1541587,5.9931049 20.4546667,5.9931049 Z M13.2304762,17.3576527 C10.6559365,17.3576527 8.56914286,15.2247477 8.56914286,12.5933191 C8.56914286,9.96189039 10.6559365,7.82898537 13.2304762,7.82898537 C15.8064762,7.82898537 17.8918095,9.96338298 17.8918095,12.5933191 C17.8918095,15.2247477 15.8050159,17.3576527 13.2304762,17.3576527 Z M10.4179048,12.5798858 C10.4179048,14.1601309 11.6712516,15.4411727 13.2173333,15.4411727 C14.763415,15.4411727 16.0167619,14.1601309 16.0167619,12.5798858 C16.0167619,10.9996407 14.763415,9.71859892 13.2173333,9.71859892 C11.6712516,9.71859892 10.4179048,10.9996407 10.4179048,12.5798858 L10.4179048,12.5798858 Z" id="形状" fill="#BFA065" fill-rule="nonzero"></path>
                    </g>
                </g>
            </g>
        </g>
    </g>
</svg>