<?xml version="1.0" encoding="UTF-8"?>
<svg width="20px" height="20px" viewBox="0 0 20 20" version="1.1" xmlns="http://www.w3.org/2000/svg" xmlns:xlink="http://www.w3.org/1999/xlink">
    <!-- Generator: Sketch 53 (72520) - https://sketchapp.com -->
    <title>公司</title>
    <desc>Created with Sketch.</desc>
    <g id="Page-1" stroke="none" stroke-width="1" fill="none" fill-rule="evenodd">
        <g id="登录-未注册" transform="translate(-18.000000, -378.000000)" fill-rule="nonzero">
            <g id="公司" transform="translate(19.000000, 379.000000)">
                <rect id="矩形" fill="#000000" opacity="0" x="0" y="0" width="18" height="18"></rect>
                <path d="M15.3741555,13.126573 L11.9979467,13.126573 C11.7909817,13.126573 11.6232034,12.9587947 11.6232034,12.7518297 C11.6232034,12.5448646 11.7909817,12.3770863 11.9979467,12.3770863 L15.3741555,12.3770863 C15.5811205,12.3770863 15.7488988,12.5448646 15.7488988,12.7518297 C15.7488988,12.9587947 15.5811205,13.126573 15.3741555,13.126573 L15.3741555,13.126573 Z M15.3741555,10.3151183 L11.9979467,10.3151183 C11.7909817,10.3151183 11.6232034,10.14734 11.6232034,9.94037495 C11.6232034,9.73340992 11.7909817,9.56563161 11.9979467,9.56563161 L15.3741555,9.56563161 C15.5811205,9.56563161 15.7488988,9.73340992 15.7488988,9.94037495 C15.7488988,10.14734 15.5811205,10.3151183 15.3741555,10.3151183 L15.3741555,10.3151183 Z M15.3741555,7.50366357 L11.9979467,7.50366357 C11.7909817,7.50366357 11.6232034,7.33588526 11.6232034,7.12892023 C11.6232034,6.9219552 11.7909817,6.7541769 11.9979467,6.7541769 L15.3741555,6.7541769 C15.5811205,6.7541769 15.7488988,6.9219552 15.7488988,7.12892023 C15.7488988,7.33588526 15.5811205,7.50366357 15.3741555,7.50366357 L15.3741555,7.50366357 Z M7.12452394,8.25315024 L3.37533121,8.25315024 C3.16836618,8.25315024 3.00058787,8.08537193 3.00058787,7.8784069 C3.00058787,7.67144187 3.16836618,7.50366357 3.37533121,7.50366357 L7.12452394,7.50366357 C7.33148897,7.50366357 7.49926728,7.67144187 7.49926728,7.8784069 C7.49926728,8.08537193 7.33148897,8.25315024 7.12452394,8.25315024 L7.12452394,8.25315024 Z M7.12452394,4.87870084 L3.37533121,4.87870084 C3.16836618,4.87870083 3.00058789,4.71092253 3.00058789,4.5039575 C3.00058789,4.29699248 3.16836618,4.12921418 3.37533121,4.12921417 L7.12452394,4.12921417 C7.33148897,4.12921417 7.49926728,4.29699247 7.49926728,4.5039575 C7.49926728,4.71092253 7.33148897,4.87870084 7.12452394,4.87870084 Z M7.49926728,17.6252524 L6.74978061,17.6252524 L6.74978061,12.7518297 C6.74881759,12.5452648 6.58160209,12.3780494 6.37503727,12.3770863 L4.12481788,12.3770863 C3.91825306,12.3780494 3.75103757,12.5452648 3.75007454,12.7518297 L3.75007454,17.6252524 L3.00058785,17.6252524 L3.00058785,12.7518297 C3.00155662,12.1303646 3.5051122,11.6268091 4.12657724,11.6258403 L6.37679663,11.6258403 C6.99826167,11.6268091 7.50181723,12.1303646 7.502786,12.7518297 L7.502786,17.6252524 L7.49926728,17.6252524 Z" id="形状" stroke="#333333" stroke-width="0.2" fill="#333333"></path>
                <path d="M17.6226155,17.9999958 L10.12423,17.9999958 L10.12423,17.2505091 L17.2461128,17.2505091 L17.2461128,5.8146795 C17.245144,5.19321446 16.7415885,4.68965889 16.1201234,4.68869013 L10.12423,4.68869013 L10.12423,3.93920346 L16.1236422,3.93920346 C17.1590369,3.94017339 17.9981483,4.7792847 17.9991182,5.8146795 L17.9991182,17.6252524 C17.9981497,17.8325017 17.8298671,17.999998 17.6226155,17.9999958 L17.6226155,17.9999958 Z" id="路径" stroke="#333333" stroke-width="0.2" fill="#333333"></path>
                <path d="M10.12423,17.9999958 L0.375625125,17.9999958 C0.276093489,18.0004664 0.180502379,17.9611358 0.110122097,17.8907555 C0.0397418157,17.8203752 0.00041118214,17.7247841 0.000881789063,17.6252524 L0.000881789063,1.87547606 C0.00185171511,0.840081255 0.840963044,0.000969926047 1.87635785,-1.18564977e-14 L8.6234973,-1.18564977e-14 C9.65889211,0.000969926047 10.4980034,0.840081255 10.4989734,1.87547606 L10.4989734,17.6252524 C10.4989734,17.8322175 10.3311951,17.9999958 10.12423,17.9999958 Z M0.750368461,17.2505091 L9.74772731,17.2505091 L9.74772731,1.87547606 C9.74675855,1.25401101 9.24320299,0.750455443 8.62173795,0.749486672 L1.87635785,0.749486672 C1.2548928,0.750455433 0.751337222,1.25401101 0.750368461,1.87547606 L0.750368461,17.2505091 Z" id="形状" stroke="#333333" stroke-width="0.2" fill="#333333"></path>
            </g>
        </g>
    </g>
</svg>