<?xml version="1.0" encoding="UTF-8"?>
<svg width="12px" height="12px" viewBox="0 0 12 12" version="1.1" xmlns="http://www.w3.org/2000/svg" xmlns:xlink="http://www.w3.org/1999/xlink">
    <!-- Generator: Sketch 53 (72520) - https://sketchapp.com -->
    <title>注销</title>
    <desc>Created with Sketch.</desc>
    <g id="Page-1" stroke="none" stroke-width="1" fill="none" fill-rule="evenodd">
        <g id="个人中心" transform="translate(-166.000000, -562.000000)">
            <g id="注销" transform="translate(164.000000, 558.000000)">
                <g transform="translate(0.000000, 2.000000)">
                    <rect id="矩形" fill="#000000" opacity="0" x="0" y="0" width="16" height="16"></rect>
                    <path d="M12.24275,3.75725 C12.1172128,3.62727171 11.9313111,3.5751437 11.7564963,3.62090142 C11.5816816,3.66665914 11.4451591,3.80318162 11.3994014,3.97799634 C11.3536437,4.15281105 11.4057717,4.33871276 11.53575,4.46425 C13.48525,6.41375 13.48525,9.58575 11.53575,11.53525 C9.58625,13.48475 6.41425,13.48475 4.46475,11.53525 C2.51525,9.58575 2.51525,6.41375 4.46475,4.46425 C4.59472829,4.33871276 4.6468563,4.15281105 4.60109858,3.97799634 C4.55534086,3.80318162 4.41881838,3.66665914 4.24400366,3.62090142 C4.06918895,3.5751437 3.88328724,3.62727171 3.75775,3.75725 C1.4145,6.1005 1.4145,9.8995 3.75775,12.2425 C6.101,14.5855 9.9,14.58575 12.243,12.2425 C14.586,9.89925 14.58575,6.1005 12.24275,3.75725 L12.24275,3.75725 Z M8,8 C7.72385763,8 7.5,7.77614237 7.5,7.5 L7.5,2.5 C7.5,2.22385763 7.72385763,2 8,2 C8.27614237,2 8.5,2.22385763 8.5,2.5 L8.5,7.5 C8.5,7.77614237 8.27614237,8 8,8 Z" id="形状" fill="#BFA065" fill-rule="nonzero"></path>
                </g>
            </g>
        </g>
    </g>
</svg>