<?xml version="1.0" encoding="UTF-8"?>
<svg width="14px" height="16px" viewBox="0 0 14 16" version="1.1" xmlns="http://www.w3.org/2000/svg" xmlns:xlink="http://www.w3.org/1999/xlink">
    <!-- Generator: Sketch 53 (72520) - https://sketchapp.com -->
    <title>订单</title>
    <desc>Created with Sketch.</desc>
    <g id="Page-1" stroke="none" stroke-width="1" fill="none" fill-rule="evenodd">
        <g id="个人中心" transform="translate(-29.000000, -283.000000)">
            <g id="订单" transform="translate(28.000000, 283.000000)">
                <rect id="矩形" fill="#000000" opacity="0" x="0" y="0" width="16" height="16"></rect>
                <path d="M4.6875,7.225 L11.325,7.225 L11.325,7.975 L4.6875,7.975 L4.6875,7.225 Z M4.6875,10.525 L8.75,10.525 L8.75,11.275 L4.6875,11.275 L4.6875,10.525 Z" id="形状" stroke="#C4A05B" stroke-width="0.2" fill="#BFA065" fill-rule="nonzero"></path>
                <path d="M12.7875,15.3375 L3.2125,15.3375 C3.0125,15.3375 2.825,15.3 2.6375,15.225 C2.4625,15.15 2.3,15.05 2.175,14.9125 C2.0375,14.775 1.9375,14.625 1.8625,14.45 C1.7875,14.2625 1.75,14.075 1.75,13.875 L1.75,3.9125 C1.75,3.7125 1.7875,3.525 1.8625,3.3375 C1.9375,3.1625 2.0375,3 2.175,2.875 C2.3125,2.7375 2.4625,2.6375 2.6375,2.5625 C2.825,2.4875 3.0125,2.45 3.2125,2.45 L4.6625,2.45 L4.6625,3.1875 L3.2125,3.1875 C2.8125,3.1875 2.475,3.5125 2.475,3.925 L2.475,13.8875 C2.475,14.2875 2.8,14.625 3.2125,14.625 L12.775,14.625 C13.175,14.625 13.5125,14.3 13.5125,13.8875 L13.5125,3.9125 C13.5125,3.5125 13.1875,3.175 12.775,3.175 L11.3375,3.175 L11.3375,2.4375 L12.7875,2.4375 C12.9875,2.4375 13.175,2.475 13.3625,2.55 C13.5375,2.625 13.7,2.725 13.825,2.8625 C13.9625,3 14.0625,3.15 14.1375,3.325 C14.2125,3.5125 14.25,3.7 14.25,3.9 L14.25,13.8625 C14.25,14.0625 14.2125,14.25 14.1375,14.4375 C14.0625,14.6125 13.9625,14.775 13.825,14.9 C13.6875,15.0375 13.5375,15.1375 13.3625,15.2125 C13.175,15.3 12.9875,15.3375 12.7875,15.3375 Z" id="路径" stroke="#C4A05B" stroke-width="0.2" fill="#BFA065"></path>
                <path d="M11.675,4.65 L4.325,4.65 L4.325,2.25 C4.325,1.7375 4.7375,1.325 5.25,1.325 L6.2,1.325 C6.5375,0.65 7.2375,0.2125 8.0125,0.2125 C8.7875,0.2125 9.4875,0.65 9.825,1.325 L10.775,1.325 C11.2875,1.325 11.7,1.7375 11.7,2.25 L11.675,4.65 L11.675,4.65 Z M5.0625,3.9125 L10.95,3.9125 L10.95,2.25 C10.95,2.15 10.8625,2.0625 10.7625,2.0625 L9.3,2.0625 L9.2125,1.8125 C9.0375,1.3 8.55,0.95 8,0.95 C7.45,0.95 6.9625,1.3 6.7875,1.8125 L6.7,2.0625 L5.2375,2.0625 C5.1375,2.0625 5.05,2.15 5.05,2.25 L5.05,3.9125 L5.0625,3.9125 Z" id="形状" stroke="#C4A05B" stroke-width="0.2" fill="#BFA065" fill-rule="nonzero"></path>
            </g>
        </g>
    </g>
</svg>