<?xml version="1.0" encoding="UTF-8"?>
<svg width="14px" height="14px" viewBox="0 0 14 14" version="1.1" xmlns="http://www.w3.org/2000/svg" xmlns:xlink="http://www.w3.org/1999/xlink">
    <!-- Generator: Sketch 53 (72520) - https://sketchapp.com -->
    <title>删除 (2)</title>
    <desc>Created with Sketch.</desc>
    <g id="Page-1" stroke="none" stroke-width="1" fill="none" fill-rule="evenodd">
        <g id="购物车" transform="translate(-346.000000, -124.000000)">
            <g id="删除-(2)" transform="translate(345.000000, 123.000000)">
                <rect id="矩形" fill="#000000" opacity="0" x="0" y="0" width="16" height="16"></rect>
                <path d="M12.336,4.712 C12.128,4.712 11.96,4.88 11.96,5.088 L11.96,5.536 L11.96,6.976 L11.96,13 C11.96,13.416 11.624,13.752 11.208,13.752 L4.808,13.752 C4.392,13.752 4.056,13.416 4.056,13 L4.056,6.968 L4.056,5.528 L4.056,5.08 C4.056,4.872 3.888,4.704 3.68,4.704 C3.472,4.704 3.304,4.872 3.304,5.08 L3.304,6.584 L3.304,6.96 L3.304,7.648 L3.304,13.36 C3.304,13.984 3.808,14.488 4.432,14.488 L11.584,14.488 C12.208,14.488 12.712,13.984 12.712,13.36 L12.712,6.96 L12.712,6.584 L12.712,5.088 C12.712,4.88 12.544,4.712 12.336,4.712 Z M7.064,11.864 L7.064,5.464 C7.064,5.256 6.896,5.088 6.688,5.088 C6.48,5.088 6.312,5.256 6.312,5.464 L6.312,11.864 C6.312,12.072 6.48,12.24 6.688,12.24 C6.896,12.24 7.064,12.072 7.064,11.864 Z M5.936,2.08 L10.08,2.08 C10.288,2.08 10.456,1.912 10.456,1.704 C10.456,1.496 10.288,1.328 10.08,1.328 L5.936,1.328 C5.728,1.328 5.56,1.496 5.56,1.704 C5.56,1.912 5.728,2.08 5.936,2.08 Z M13.84,2.832 L2.176,2.832 C1.968,2.832 1.8,3 1.8,3.208 C1.8,3.416 1.968,3.584 2.176,3.584 L13.84,3.584 C14.048,3.584 14.216,3.416 14.216,3.208 C14.216,3 14.048,2.832 13.84,2.832 Z M9.704,11.864 L9.704,5.464 C9.704,5.256 9.536,5.088 9.328,5.088 C9.12,5.088 8.952,5.256 8.952,5.464 L8.952,11.864 C8.952,12.072 9.12,12.24 9.328,12.24 C9.536,12.24 9.704,12.072 9.704,11.864 Z" id="形状" fill="#666666" fill-rule="nonzero"></path>
            </g>
        </g>
    </g>
</svg>