<?xml version="1.0" encoding="UTF-8"?>
<svg width="13px" height="13px" viewBox="0 0 13 13" version="1.1" xmlns="http://www.w3.org/2000/svg" xmlns:xlink="http://www.w3.org/1999/xlink">
    <!-- Generator: Sketch 53 (72520) - https://sketchapp.com -->
    <title>修改</title>
    <desc>Created with Sketch.</desc>
    <g id="Page-1" stroke="none" stroke-width="1" fill="none" fill-rule="evenodd">
        <g id="购物车-选择后交互" transform="translate(-314.000000, -76.000000)">
            <g id="修改" transform="translate(311.000000, 73.000000)">
                <rect id="矩形" fill="#000000" opacity="0" x="0" y="0" width="18" height="18"></rect>
                <path d="M13.5163125,5.871375 L11.8603125,4.215375 L5.283,10.79325 L5.205375,12.5263125 L6.9384375,12.4486875 L13.5163125,5.871375 L13.5163125,5.871375 Z M15.1531875,13.6665 L4.3250625,13.6665 C3.89854535,13.6680426 3.55316757,14.0134204 3.551625,14.4399375 C3.55316757,14.8664546 3.89854535,15.2118324 4.3250625,15.213375 L15.1531875,15.213375 C15.5797046,15.2118324 15.9250824,14.8664546 15.926625,14.4399375 C15.926625,14.0146875 15.579,13.6665 15.1531875,13.6665 Z M13.8465,5.540625 L12.1905,3.884625 L12.6545625,3.4205625 C12.9252354,3.15178408 13.3620771,3.15178408 13.63275,3.4205625 L14.3105625,4.098375 C14.5793409,4.36904794 14.5793409,4.80588956 14.3105625,5.0765625 L13.8465,5.540625 L13.8465,5.540625 Z" id="形状" fill="#333333" fill-rule="nonzero"></path>
            </g>
        </g>
    </g>
</svg>