<?xml version="1.0" encoding="UTF-8"?>
<svg width="18px" height="17px" viewBox="0 0 18 17" version="1.1" xmlns="http://www.w3.org/2000/svg" xmlns:xlink="http://www.w3.org/1999/xlink">
    <!-- Generator: Sketch 54 (76480) - https://sketchapp.com -->
    <title>homepage_fill</title>
    <desc>Created with Sketch.</desc>
    <g id="Page-1" stroke="none" stroke-width="1" fill="none" fill-rule="evenodd">
        <g id="更多功能" transform="translate(-15.000000, -628.000000)">
            <g id="Bars/Tab-Bar/4-Items-Copy" transform="translate(0.000000, 618.000000)">
                <g id="Item-2" transform="translate(0.000000, 9.000000)">
                    <g id="homepage_fill" transform="translate(14.000000, 0.000000)">
                        <rect id="矩形" fill="#000000" opacity="0" x="0" y="0" width="19" height="19"></rect>
                        <path d="M12.9140625,16.23075 L5.36761133,16.23075 L5.36761133,16.2286348 L7.2734375,16.2293398 L7.2734375,13.6099746 C7.2734375,13.5923477 7.27837305,13.5761309 7.27837305,13.559209 C7.30657617,12.0256641 8.55597461,10.7854316 10.09375,10.7854316 C11.6315254,10.7854316 12.8809238,12.0263691 12.909127,13.559209 C12.909127,13.5761309 12.9140625,13.5923477 12.9140625,13.6099746 L12.9140625,16.23075 Z M18.2218906,6.80738086 L16.4394531,5.63977148 L16.4394531,3.37717578 C16.4394531,2.98777189 16.1237789,2.67209766 15.734375,2.67209766 C15.3449711,2.67209766 15.0292969,2.98777189 15.0292969,3.37717578 L15.0292969,4.71682422 L10.4801328,1.73504883 C10.3606332,1.66110198 10.2213932,1.62543094 10.0810586,1.6328125 C9.94450131,1.62754785 9.80947843,1.66314479 9.69326562,1.73504883 L1.95150781,6.80808594 C1.62577145,7.02147927 1.53469944,7.45853024 1.74809277,7.7842666 C1.96148611,8.11000296 2.39853708,8.20107498 2.72427344,7.98768164 L3.04296875,7.77827344 L3.04296875,16.4394531 C3.04296875,17.1022266 3.64158008,17.6423164 4.37768164,17.6423164 L15.8098184,17.6423164 C16.5459199,17.6416113 17.1445312,17.1022266 17.1445312,16.4394531 L17.1445312,7.78814453 L17.4498301,7.98768164 C17.7755664,8.20088027 18.2124596,8.10965042 18.4256582,7.78391406 C18.6388568,7.4581777 18.547627,7.02128457 18.2218906,6.80808594 L18.2218906,6.80738086 Z" id="形状" fill-opacity="0.8" fill="#333333" fill-rule="nonzero"></path>
                    </g>
                </g>
            </g>
        </g>
    </g>
</svg>