<?xml version="1.0" encoding="UTF-8"?>
<svg width="8px" height="18px" viewBox="0 0 8 18" version="1.1" xmlns="http://www.w3.org/2000/svg" xmlns:xlink="http://www.w3.org/1999/xlink">
    <!-- Generator: Sketch 53 (72520) - https://sketchapp.com -->
    <title>职务</title>
    <desc>Created with Sketch.</desc>
    <g id="Page-1" stroke="none" stroke-width="1" fill="none" fill-rule="evenodd">
        <g id="登录-未注册" transform="translate(-24.000000, -446.000000)" fill="#000000" fill-rule="nonzero">
            <g id="职务" transform="translate(19.000000, 446.000000)">
                <rect id="矩形" opacity="0" x="0" y="0" width="18" height="18"></rect>
                <path d="M9.96696,3.40092 L7.88949,3.40092 C7.73451,3.40092 7.59051,3.32118 7.50825,3.18996 L6.16545,1.04832 C6.07851,0.90963 6.07374,0.73467 6.15294,0.59139 C6.23223,0.4482 6.38298,0.35928 6.54669,0.35928 L11.45331,0.35928 C11.62071,0.35928 11.77434,0.45225 11.8521,0.60066 C11.92968,0.74907 11.91852,0.92826 11.82303,1.06587 L10.33659,3.20751 C10.25253,3.32865 10.11447,3.40092 9.96696,3.40092 Z M8.13843,2.50092 L9.73152,2.50092 L10.59327,1.25928 L7.36002,1.25928 L8.13843,2.50092 Z M8.95392,17.82 C8.95266,17.82 8.95149,17.82 8.95032,17.82 C8.81694,17.81892 8.69085,17.75871 8.60616,17.65566 L5.51583,13.89339 C5.42592,13.78386 5.3928,13.63842 5.42646,13.50081 L7.64946,4.41351 C7.69869,4.21209 7.87923,4.07043 8.08659,4.07043 L9.69219,4.07043 C9.89577,4.07043 10.07397,4.20714 10.1268,4.4037 L12.57102,13.50324 C12.60936,13.64598 12.57516,13.79844 12.47949,13.91112 L9.297,17.66115 C9.2115,17.76195 9.08595,17.82 8.95392,17.82 Z M6.35418,13.49604 L8.9595,16.66791 L11.64069,13.50873 L9.34722,4.97034 L8.43975,4.97034 L6.35418,13.49604 Z" id="形状"></path>
            </g>
        </g>
    </g>
</svg>