<?xml version="1.0" encoding="UTF-8"?>
<svg width="13px" height="15px" viewBox="0 0 13 15" version="1.1" xmlns="http://www.w3.org/2000/svg" xmlns:xlink="http://www.w3.org/1999/xlink">
    <!-- Generator: Sketch 53 (72520) - https://sketchapp.com -->
    <title>开票信息维护</title>
    <desc>Created with Sketch.</desc>
    <g id="Page-1" stroke="none" stroke-width="1" fill="none" fill-rule="evenodd">
        <g id="个人中心" transform="translate(-30.000000, -338.000000)">
            <g id="开票信息维护" transform="translate(28.000000, 337.000000)">
                <rect id="矩形" fill="#000000" opacity="0" x="0" y="0" width="16" height="16"></rect>
                <path d="M7.79368176,15.6043145 L3.5317745,15.6043145 C2.68618763,15.6033729 2.00093798,14.9155002 2,14.0666765 L2,2.53763796 C2.00093798,1.68881428 2.68618763,1.00094157 3.5317745,1 L12.0557592,1 C12.9013461,1.00094157 13.5865957,1.68881428 13.5875337,2.53763796 L13.5875337,8.23629509 C13.5875337,8.51936642 13.3589341,8.74884108 13.0769422,8.74884108 C12.7949503,8.74884108 12.5663507,8.51936642 12.5663507,8.23629509 L12.5663507,2.53763796 C12.5663507,2.25456663 12.3377511,2.02509197 12.0557592,2.02509197 L3.5317745,2.02509197 C3.2497826,2.02509197 3.021183,2.25456663 3.021183,2.53763796 L3.021183,14.0666765 C3.021183,14.3497479 3.2497826,14.5792225 3.5317745,14.5792225 L7.79368176,14.5792225 C8.07567366,14.5792225 8.30427326,14.8086972 8.30427326,15.0917685 C8.30427326,15.3748398 8.07567366,15.6043145 7.79368176,15.6043145 Z M11.658519,10.8689021 C11.942181,10.8689021 12.0840119,11.011276 12.0840119,11.2960238 L12.0840119,12.8336617 C12.0840119,13.1184095 11.942181,13.2607834 11.658519,13.2607834 C11.3748571,13.2607834 11.2330261,13.1184095 11.2330261,12.8336617 L11.2330261,11.2960238 C11.2330261,11.011276 11.3748571,10.8689021 11.658519,10.8689021 Z M11.2330261,14.0297732 C11.2330261,14.265666 11.4235258,14.4568949 11.658519,14.4568949 C11.8935123,14.4568949 12.0840119,14.265666 12.0840119,14.0297732 C12.0840119,13.7938805 11.8935123,13.6026516 11.658519,13.6026516 C11.4235258,13.6026516 11.2330261,13.7938805 11.2330261,14.0297732 Z M10.6756304,5.41592537 L4.86629049,5.41592537 C4.58429859,5.41592537 4.35569899,5.18645072 4.35569899,4.90337939 C4.35569899,4.62030805 4.58429859,4.3908334 4.86629049,4.3908334 L10.6756304,4.3908334 C10.9576471,4.3908334 10.9819853,4.620454 10.9819853,4.90337939 C10.9819853,5.18630477 10.9576471,5.41592537 10.6756304,5.41592537 Z M10.70116,8.23629509 L4.89182006,8.23629509 C4.60982817,8.23629508 4.38122858,8.00682043 4.38122858,7.7237491 C4.38122858,7.44067778 4.60982817,7.21120313 4.89182006,7.21120312 L10.70116,7.21120312 C10.9831767,7.21120312 11.0075149,7.44065287 11.0075149,7.7237491 C11.0075149,8.00684534 10.9831767,8.23629509 10.70116,8.23629509 L10.70116,8.23629509 Z M7.77104553,11.2476736 L4.89182006,11.2476736 C4.60982816,11.2476736 4.38122856,11.018199 4.38122856,10.7351276 C4.38122856,10.4520563 4.60982816,10.2225816 4.89182006,10.2225816 L7.77104553,10.2225816 C8.05303743,10.2225816 8.28163703,10.4520563 8.28163703,10.7351276 C8.28163703,11.018199 8.05303743,11.2476736 7.77104553,11.2476736 Z M11.7095782,16 C9.89527637,16 8.41932654,14.5184004 8.41932654,12.6971537 C8.41932654,10.8759069 9.89527637,9.39413647 11.7095782,9.39413647 C13.52388,9.39413647 15,10.8759069 15,12.6971537 C15,14.5184004 13.5237098,16 11.7095782,16 L11.7095782,16 Z M11.7095782,10.2483798 C10.3650206,10.2483798 9.27031238,11.3469367 9.27031238,12.6971537 C9.27031238,14.0473706 10.36451,15.1457567 11.7095782,15.1457567 C13.0546464,15.1457567 14.1490142,14.0473706 14.1490142,12.6971537 C14.1490142,11.3469367 13.0546464,10.2483798 11.7095782,10.2483798 L11.7095782,10.2483798 Z" id="形状" fill="#BFA065" fill-rule="nonzero"></path>
            </g>
        </g>
    </g>
</svg>