<?xml version="1.0" encoding="UTF-8"?>
<svg width="16px" height="20px" viewBox="0 0 16 20" version="1.1" xmlns="http://www.w3.org/2000/svg" xmlns:xlink="http://www.w3.org/1999/xlink">
    <!-- Generator: Sketch 53 (72520) - https://sketchapp.com -->
    <title>定位</title>
    <desc>Created with Sketch.</desc>
    <g id="Page-1" stroke="none" stroke-width="1" fill="none" fill-rule="evenodd">
        <g id="查看详情" transform="translate(-16.000000, -158.000000)" fill-rule="nonzero">
            <g id="定位" transform="translate(14.000000, 158.000000)">
                <rect id="矩形" fill="#000000" opacity="0" x="0" y="0" width="20" height="20"></rect>
                <path d="M10.0020833,11.8166667 C8.12291667,11.8166667 6.59375,10.2895833 6.59375,8.41041667 C6.59375,6.53125 8.12291667,5.00208333 10.0020833,5.00208333 C11.88125,5.00208333 13.4104167,6.53125 13.4104167,8.41041667 C13.4104167,10.2895833 11.88125,11.8166667 10.0020833,11.8166667 L10.0020833,11.8166667 Z M10.0020833,5.91041667 C8.625,5.91041667 7.50416667,7.03125 7.50416667,8.41041667 C7.50416667,9.78997795 8.62252205,10.9083333 10.0020833,10.9083333 C11.3816446,10.9083333 12.5,9.78997795 12.5,8.41041667 C12.5,7.03125 11.3791667,5.91041667 10.0020833,5.91041667 Z" id="形状" fill="#333333"></path>
                <path d="M10.0020833,0.685416667 C5.74375,0.685416667 2.27916667,4.15 2.27916667,8.41041667 C2.27935284,9.86886111 2.69564637,11.2969792 3.47916667,12.5270833 L3.59166667,12.71875 C4.31666667,13.8208333 8.03958333,19.3145833 10.0020833,19.3145833 C11.4833333,19.3145833 14.0541667,16.0833333 16.0708333,13.1708333 C17.1426164,11.8156094 17.725477,10.1382334 17.725,8.41041667 C17.725,4.15 14.2604167,0.685416667 10.0020833,0.685416667 Z M10.0020833,18.4041667 C9.33125,18.4041667 7.97291667,17.0166667 6.63541667,15.35 C5.88958333,14.4208333 5.14791667,13.4083333 4.5375,12.4979167 C4.5375,12.4979167 4.14791667,11.9104167 3.97916667,11.5895833 C3.45860238,10.6108011 3.18673025,9.51901991 3.1875,8.41041667 C3.1875,4.65208333 6.24375,1.59583333 10.0020833,1.59583333 C13.7604167,1.59583333 16.8166667,4.65208333 16.8166667,8.41041667 C16.8178726,9.52539698 16.5430304,10.6233341 16.0166667,11.60625 C15.8120266,11.9888858 15.5720957,12.351572 15.3,12.6895833 C14.5979167,13.6958333 13.9229167,14.6041667 13.2979167,15.3854167 C11.7875,17.2666667 10.5708333,18.4041667 10.0020833,18.4041667 L10.0020833,18.4041667 Z" id="形状" fill="#333333"></path>
            </g>
        </g>
    </g>
</svg>