<?xml version="1.0" encoding="UTF-8"?>
<svg width="16px" height="16px" viewBox="0 0 16 16" version="1.1" xmlns="http://www.w3.org/2000/svg" xmlns:xlink="http://www.w3.org/1999/xlink">
    <!-- Generator: Sketch 53 (72520) - https://sketchapp.com -->
    <title>门店</title>
    <desc>Created with Sketch.</desc>
    <g id="Page-1" stroke="none" stroke-width="1" fill="none" fill-rule="evenodd">
        <g id="个人中心" transform="translate(-28.000000, -442.000000)">
            <g id="门店" transform="translate(28.000000, 442.000000)">
                <rect id="矩形" fill="#000000" opacity="0" x="0" y="0" width="16" height="16"></rect>
                <path d="M2.40432,1.47432 L13.80632,1.47432 C14.32216,1.47432 14.32216,0.67432 13.80632,0.67432 L2.40432,0.67432 C1.8884,0.67432 1.8884,1.47432 2.40432,1.47432 Z M4.06672,6.1488 C4.01064,7.60272 1.35504,7.60264 1.29888,6.1488 C1.27904,5.63464 0.47896,5.63272 0.49888,6.1488 C0.5948,8.63456 4.7708,8.63456 4.86672,6.1488 C4.88664,5.63272 4.08656,5.63464 4.06672,6.1488 Z M7.68616,6.1488 C7.63008,7.60288 4.9748,7.60248 4.91872,6.1488 C4.89888,5.63464 4.0988,5.63272 4.11872,6.1488 C4.21472,8.6344 8.39056,8.63488 8.4864,6.1488 C8.50632,5.63272 7.706,5.63464 7.68616,6.1488 Z M11.25376,6.1488 C11.19768,7.60296 8.54248,7.6024 8.4864,6.1488 C8.46656,5.63464 7.66624,5.63272 7.68616,6.1488 C7.78208,8.6344 11.95784,8.63488 12.05376,6.1488 C12.07368,5.63272 11.2736,5.63464 11.25376,6.1488 Z M14.91672,6.1488 C14.86064,7.60296 12.20544,7.6024 12.14944,6.1488 C12.1296,5.63464 11.32952,5.63272 11.34944,6.1488 C11.44528,8.6344 15.62096,8.63488 15.71672,6.1488 C15.73664,5.63272 14.93656,5.63464 14.91672,6.1488 L14.91672,6.1488 Z M2.3692,0.70816 C1.53584,0.462 1.05384,1.9852 0.8792,2.48832 C0.46848,3.67136 0.2276,5.08544 0.4888,6.33336 C0.5944,6.83824 1.36552,6.624 1.26024,6.12072 C1.08576,5.28696 1.24184,4.16456 1.4736,3.2792 C1.62536,2.69928 1.822,2.08416 2.17576,1.59208 C2.24664,1.49344 2.35672,1.45368 2.26104,1.49176 C2.30184,1.47552 2.20672,1.49448 2.15648,1.4796 C2.65248,1.62608 2.8628,0.85392 2.3692,0.70816 L2.3692,0.70816 Z M14.1284,1.464 C14.02088,1.51168 14.01528,1.52016 13.9284,1.50232 C13.97344,1.5116 13.84808,1.45432 13.94528,1.51192 C13.95888,1.51992 13.98528,1.54632 14.04256,1.6104 C14.4148,2.0272 14.57064,2.71208 14.71592,3.2308 C14.96104,4.10584 15.102,5.24664 14.92936,6.07248 C14.82408,6.57584 15.59512,6.79 15.7008,6.28512 C15.96384,5.02784 15.70736,3.636 15.31032,2.44056 C15.1232,1.87704 14.60504,0.38296 13.72488,0.77328 C13.254,0.982 13.66144,1.6712 14.1284,1.464 L14.1284,1.464 Z M13.69528,12.3384 L13.69528,13.76872 C13.69528,13.98696 13.82168,14.70032 13.46632,14.70032 L2.70792,14.70032 C2.30216,14.70032 2.46904,13.62976 2.46904,13.386 L2.46904,8.55984 C2.46904,8.044 1.66904,8.044 1.66904,8.55984 L1.66904,14.3092 C1.66904,14.85544 1.88552,15.31976 2.45576,15.47632 C2.63848,15.52648 2.86848,15.50032 3.05552,15.50032 L12.54648,15.50032 C13.12472,15.50032 13.91608,15.63048 14.29928,15.08848 C14.57736,14.69504 14.49528,14.1496 14.49528,13.69296 L14.49528,12.33848 C14.49528,11.82256 13.69528,11.82256 13.69528,12.3384 L13.69528,12.3384 Z M13.78312,7.64536 L13.78312,10.27736 C13.78312,10.7932 14.58312,10.7932 14.58312,10.27736 L14.58312,7.64536 C14.58312,7.12952 13.78312,7.12952 13.78312,7.64536 Z M6.94288,15.0928 L6.94288,12.23 L6.94288,11.01816 C6.94288,10.97976 8.03064,11 8.12784,11 C8.20664,11 9.23288,10.99112 9.23288,11.00816 L9.23288,15.0928 C9.23288,15.60856 10.03288,15.60856 10.03288,15.0928 L10.03288,12.1568 L10.03288,11.00816 C10.03288,10.31128 9.40096,10.2 8.86008,10.2 L7.1052,10.2 C6.56808,10.2 6.14288,10.4916 6.14288,11.07072 L6.14288,15.09296 C6.14288,15.60856 6.94288,15.60856 6.94288,15.0928 Z" id="形状" stroke="#C4A05B" stroke-width="0.2" fill="#BFA065" fill-rule="nonzero"></path>
            </g>
        </g>
    </g>
</svg>