<?xml version="1.0" encoding="UTF-8"?>
<svg width="16px" height="4px" viewBox="0 0 16 4" version="1.1" xmlns="http://www.w3.org/2000/svg" xmlns:xlink="http://www.w3.org/1999/xlink">
    <!-- Generator: Sketch 53 (72520) - https://sketchapp.com -->
    <title>更多</title>
    <desc>Created with Sketch.</desc>
    <g id="Page-1" stroke="none" stroke-width="1" fill="none" fill-rule="evenodd">
        <g id="购物车-多件商品收起" transform="translate(-345.000000, -254.000000)">
            <g id="更多" transform="translate(345.000000, 248.000000)">
                <rect id="矩形" fill="#000000" opacity="0" x="0" y="0" width="16" height="16"></rect>
                <path d="M1.77777778,9.77777778 C2.75555556,9.77777778 3.55555556,8.97777778 3.55555556,8 C3.55555556,7.02222222 2.75555556,6.22222222 1.77777778,6.22222222 C0.8,6.22222222 0,7.02222222 0,8 C0,8.97777778 0.8,9.77777778 1.77777778,9.77777778 Z M8,9.77777778 C8.97777778,9.77777778 9.77777778,8.97777778 9.77777778,8 C9.77777778,7.02222222 8.97777778,6.22222222 8,6.22222222 C7.02222222,6.22222222 6.22222222,7.02222222 6.22222222,8 C6.22222222,8.97777778 7.02222222,9.77777778 8,9.77777778 Z M14.2222222,9.77777778 C15.2,9.77777778 16,8.97777778 16,8 C16,7.02222222 15.2,6.22222222 14.2222222,6.22222222 C13.2444444,6.22222222 12.4444444,7.02222222 12.4444444,8 C12.4444444,8.97777778 13.2444444,9.77777778 14.2222222,9.77777778 Z" id="形状" fill="#666666" fill-rule="nonzero"></path>
            </g>
        </g>
    </g>
</svg>