<?xml version="1.0" encoding="UTF-8"?>
<svg width="33px" height="39px" viewBox="0 0 33 39" version="1.1" xmlns="http://www.w3.org/2000/svg" xmlns:xlink="http://www.w3.org/1999/xlink">
    <!-- Generator: Sketch 53 (72520) - https://sketchapp.com -->
    <title>完成订单</title>
    <desc>Created with Sketch.</desc>
    <defs>
        <filter x="-20.0%" y="-20.0%" width="140.0%" height="140.0%" filterUnits="objectBoundingBox" id="filter-1">
            <feOffset dx="0" dy="2" in="SourceAlpha" result="shadowOffsetOuter1"></feOffset>
            <feGaussianBlur stdDeviation="1" in="shadowOffsetOuter1" result="shadowBlurOuter1"></feGaussianBlur>
            <feColorMatrix values="0 0 0 0 0.565698596   0 0 0 0 0.386374597   0 0 0 0 0.301195697  0 0 0 1 0" type="matrix" in="shadowBlurOuter1" result="shadowMatrixOuter1"></feColorMatrix>
            <feMerge>
                <feMergeNode in="shadowMatrixOuter1"></feMergeNode>
                <feMergeNode in="SourceGraphic"></feMergeNode>
            </feMerge>
        </filter>
    </defs>
    <g id="Page-1" stroke="none" stroke-width="1" fill="none" fill-rule="evenodd">
        <g id="查看详情" transform="translate(-314.000000, -82.000000)" fill-rule="nonzero">
            <g id="完成订单" filter="url(#filter-1)" transform="translate(309.000000, 79.000000)">
                <rect id="矩形" fill="#000000" opacity="0" x="0" y="0" width="40" height="40"></rect>
                <path d="M12.726875,26.97875 C13.072053,26.97875 13.351875,27.258572 13.351875,27.60375 C13.351875,27.948928 13.072053,28.22875 12.726875,28.22875 C12.381697,28.22875 12.101875,27.948928 12.101875,27.60375 C12.101875,27.258572 12.381697,26.97875 12.726875,26.97875 Z M12.726875,20.72875 C13.072053,20.72875 13.351875,21.008572 13.351875,21.35375 C13.351875,21.698928 13.072053,21.97875 12.726875,21.97875 C12.381697,21.97875 12.101875,21.698928 12.101875,21.35375 C12.101875,21.008572 12.381697,20.72875 12.726875,20.72875 Z M15.851875,14.47875 L28.351875,14.47875 C28.697053,14.47875 28.976875,14.758572 28.976875,15.10375 C28.976875,15.448928 28.697053,15.72875 28.351875,15.72875 L15.851875,15.72875 C15.506697,15.72875 15.226875,15.448928 15.226875,15.10375 C15.226875,14.758572 15.506697,14.47875 15.851875,14.47875 Z M12.726875,14.47875 C13.072053,14.47875 13.351875,14.758572 13.351875,15.10375 C13.351875,15.448928 13.072053,15.72875 12.726875,15.72875 C12.381697,15.72875 12.101875,15.448928 12.101875,15.10375 C12.101875,14.758572 12.381697,14.47875 12.726875,14.47875 Z M22.9525,9.47875 L17.9525,9.47875 C16.74625,9.47875 15.765,8.4975 15.765,7.29125 L15.765,5.41625 C15.765,4.21 16.74625,3.22875 17.9525,3.22875 L22.9525,3.22875 C24.15875,3.22875 25.14,4.21 25.14,5.41625 L25.14,7.29125 C25.14,8.4975 24.158125,9.47875 22.9525,9.47875 Z M17.9525,4.47875 C17.435625,4.47875 17.015,4.899375 17.015,5.41625 L17.015,7.29125 C17.015,7.808125 17.435625,8.22875 17.9525,8.22875 L22.9525,8.22875 C23.469375,8.22875 23.89,7.808125 23.89,7.29125 L23.89,5.41625 C23.89,4.899375 23.469375,4.47875 22.9525,4.47875 L17.9525,4.47875 Z M21.25,35.75375 L12.730625,35.75375 C9.625,35.75375 7.098125,33.319375 7.098125,30.328125 L7.098125,11.128125 C7.098125,8.136875 9.624375,5.703125 12.730625,5.703125 L13.948125,5.703125 C14.293303,5.703125 14.573125,5.98294703 14.573125,6.328125 C14.573125,6.67330297 14.293303,6.953125 13.948125,6.953125 L12.730625,6.953125 C10.314375,6.953125 8.348125,8.82625 8.348125,11.128125 L8.348125,30.328125 C8.348125,32.630625 10.314375,34.50375 12.730625,34.50375 L21.25,34.50375 C21.595178,34.50375 21.875,34.783572 21.875,35.12875 C21.875,35.473928 21.595178,35.75375 21.25,35.75375 Z M33.355625,23.671875 C33.010447,23.671875 32.730625,23.392053 32.730625,23.046875 L32.730625,11.12875 C32.730625,8.826875 30.764375,6.95375 28.348125,6.95375 L27.12125,6.95375 C26.776072,6.95375 26.49625,6.67392797 26.49625,6.32875 C26.49625,5.98357203 26.776072,5.70375 27.12125,5.70375 L28.348125,5.70375 C31.45375,5.70375 33.980625,8.1375 33.980625,11.12875 L33.980625,23.046875 C33.980625,23.392053 33.700803,23.671875 33.355625,23.671875 Z M27.199375,37.72125 C22.374375,37.72125 18.449375,33.79625 18.449375,28.97125 C18.449375,24.14625 22.374375,20.22125 27.199375,20.22125 C32.024375,20.22125 35.949375,24.14625 35.949375,28.97125 C35.949375,33.79625 32.02375,37.72125 27.199375,37.72125 Z M27.199375,21.47125 C23.06375,21.47125 19.699375,24.835625 19.699375,28.97125 C19.699375,33.106875 23.06375,36.47125 27.199375,36.47125 C31.335,36.47125 34.699375,33.106875 34.699375,28.97125 C34.699375,24.835625 31.335,21.47125 27.199375,21.47125 Z M31.621875,25.8775 C31.5047516,25.7601773 31.3457785,25.6942493 31.18,25.6942493 C31.0142215,25.6942493 30.8552484,25.7601773 30.738125,25.8775 L25.87375,30.741875 L23.660625,28.52875 C23.5027583,28.3708833 23.2726625,28.3092293 23.0570125,28.3670125 C22.8413625,28.4247957 22.6729207,28.5932375 22.6151375,28.8088875 C22.5573543,29.0245375 22.6190083,29.2546333 22.776875,29.4125 L25.428125,32.06375 C25.5462097,32.1818405 25.7067543,32.2475895 25.87375,32.24625 C26.0407457,32.2475895 26.2012903,32.1818405 26.319375,32.06375 L31.621875,26.76125 C31.8658637,26.5171876 31.8658637,26.1215624 31.621875,25.8775 L31.621875,25.8775 Z M19.286875,27.60375 C19.286875,27.949375 18.98375,28.22875 18.61,28.22875 L15.903125,28.22875 C15.529375,28.22875 15.22625,27.949375 15.22625,27.60375 C15.22625,27.258125 15.529375,26.97875 15.903125,26.97875 L18.61,26.97875 C18.984375,26.97875 19.286875,27.258125 19.286875,27.60375 Z M24.609375,21.35375 C24.609375,21.699375 24.259375,21.97875 23.8275,21.97875 L16.00875,21.97875 C15.576875,21.97875 15.226875,21.699375 15.226875,21.35375 C15.226875,21.008125 15.576875,20.72875 16.00875,20.72875 L23.8275,20.72875 C24.259375,20.72875 24.609375,21.008125 24.609375,21.35375 Z" id="形状" fill="#FFFFFF"></path>
            </g>
        </g>
    </g>
</svg>