<?xml version="1.0" encoding="UTF-8"?>
<svg width="12px" height="16px" viewBox="0 0 12 16" version="1.1" xmlns="http://www.w3.org/2000/svg" xmlns:xlink="http://www.w3.org/1999/xlink">
    <!-- Generator: Sketch 54 (76480) - https://sketchapp.com -->
    <title>手机</title>
    <desc>Created with Sketch.</desc>
    <g id="Page-1" stroke="none" stroke-width="1" fill="none" fill-rule="evenodd">
        <g id="登录" transform="translate(-22.000000, -223.000000)" fill="#000000">
            <g id="手机" transform="translate(19.000000, 222.000000)">
                <rect id="矩形" opacity="0" x="0" y="0" width="18" height="18"></rect>
                <path d="M11.6542969,16.8486328 L6.34570312,16.8486328 C4.94472656,16.8486328 3.80566406,15.7095703 3.80566406,14.3085938 L3.80566406,6.68847656 C3.80566406,6.44589844 4.00253906,6.24902344 4.24511719,6.24902344 C4.48769531,6.24902344 4.68457031,6.44589844 4.68457031,6.68847656 L4.68457031,14.3085938 C4.68457031,15.2244141 5.42988281,15.9697266 6.34570312,15.9697266 L11.6542969,15.9697266 C12.5701172,15.9697266 13.3154297,15.2244141 13.3154297,14.3085938 L13.3154297,3.66152344 C13.3154297,2.74570313 12.5701172,2.00039063 11.6542969,2.00039063 L6.34570312,2.00039063 C5.42988281,2.00039063 4.68457031,2.74570313 4.68457031,3.66152344 L4.68457031,4.32597656 C4.68457031,4.56855469 4.48769531,4.76542969 4.24511719,4.76542969 C4.00253906,4.76542969 3.80566406,4.56855469 3.80566406,4.32597656 L3.80566406,3.66152344 C3.80566406,2.26054688 4.94472656,1.12148438 6.34570312,1.12148438 L11.6542969,1.12148438 C13.0552734,1.12148438 14.1943359,2.26054688 14.1943359,3.66152344 L14.1943359,14.3085938 C14.1943359,15.7095703 13.0552734,16.8486328 11.6542969,16.8486328 Z M7.89082031,14.1925781 C7.89082031,14.8051612 8.38741697,15.3017578 9,15.3017578 C9.61258303,15.3017578 10.1091797,14.8051612 10.1091797,14.1925781 C10.1091797,13.7963064 9.89777125,13.4301362 9.55458985,13.2320003 C9.21140846,13.0338644 8.78859154,13.0338644 8.44541015,13.2320003 C8.10222875,13.4301362 7.8908203,13.7963064 7.89082031,14.1925781 L7.89082031,14.1925781 Z M13.2960937,12.4892578 L4.71972656,12.4892578 C4.47714844,12.4892578 4.28027344,12.2923828 4.28027344,12.0498047 C4.28027344,11.8072266 4.47714844,11.6103516 4.71972656,11.6103516 L13.2960937,11.6103516 C13.5386719,11.6103516 13.7355469,11.8072266 13.7355469,12.0498047 C13.7355469,12.2923828 13.5386719,12.4892578 13.2960937,12.4892578 Z" id="形状" fill-rule="nonzero"></path>
            </g>
        </g>
    </g>
</svg>