<?xml version="1.0" encoding="UTF-8"?>
<svg width="14px" height="14px" viewBox="0 0 14 14" version="1.1" xmlns="http://www.w3.org/2000/svg" xmlns:xlink="http://www.w3.org/1999/xlink">
    <!-- Generator: Sketch 53 (72520) - https://sketchapp.com -->
    <title>询问</title>
    <desc>Created with Sketch.</desc>
    <g id="Page-1" stroke="none" stroke-width="1" fill="none" fill-rule="evenodd">
        <g id="添加花型" transform="translate(-346.000000, -78.000000)" fill-rule="nonzero">
            <g id="询问" transform="translate(345.000000, 77.000000)">
                <rect id="矩形" fill="#000000" opacity="0" x="0" y="0" width="16" height="16"></rect>
                <path d="M8,1.534375 C4.41875,1.534375 1.5171875,4.4375 1.5171875,8.0171875 C1.5171875,11.596875 4.41875,14.5015625 8,14.5015625 C11.58125,14.5015625 14.4828125,11.5984375 14.4828125,8.01875 C14.4828125,4.4390625 11.58125,1.534375 8,1.534375 Z M8.0421875,12.0703125 L8.0109375,12.0703125 C7.5625,12.0703125 7.2,11.7078125 7.2,11.259375 C7.2,10.8109375 7.5625,10.4484375 8.0109375,10.4484375 L8.0421875,10.4484375 C8.490625,10.4484375 8.853125,10.8109375 8.853125,11.259375 C8.853125,11.7078125 8.490625,12.0703125 8.0421875,12.0703125 Z M10.5078125,7.0734375 C10.3578125,7.4609375 10.0921875,7.7921875 9.75,8.0265625 C9.5921875,8.1359375 9.4421875,8.24375 9.3015625,8.353125 C9.1609375,8.4625 9.0359375,8.5859375 8.928125,8.7265625 C8.825,8.859375 8.7578125,9.0265625 8.728125,9.225 C8.728125,9.2296875 8.690625,9.509375 8.6234375,9.60625 C8.5,9.8046875 8.2828125,9.9375 8.0328125,9.9375 L8.00625,9.9375 C7.7390625,9.9375 7.4828125,9.775 7.3671875,9.553125 C7.2953125,9.4078125 7.303125,9.1796875 7.303125,9.1796875 C7.3234375,8.878125 7.3828125,8.625 7.4765625,8.421875 C7.5625,8.2328125 7.6734375,8.0578125 7.809375,7.9 C7.9359375,7.75625 8.06875,7.6328125 8.2109375,7.5265625 C8.3515625,7.421875 8.48125,7.315625 8.6,7.2109375 C8.7203125,7.10625 8.815625,6.9890625 8.890625,6.8625 C8.9640625,6.7375 8.996875,6.578125 8.990625,6.3890625 C8.990625,6.065625 8.9125,5.8265625 8.7546875,5.6734375 C8.596875,5.51875 8.3765625,5.4421875 8.0953125,5.4421875 C7.90625,5.4421875 7.7421875,5.4796875 7.60625,5.553125 C7.46875,5.6265625 7.3578125,5.725 7.26875,5.8484375 C7.178125,5.9796875 7.1109375,6.125 7.075,6.2796875 C7.075,6.2796875 7.03125,6.44375 6.96875,6.5578125 C6.840625,6.78125 6.6046875,6.9328125 6.3296875,6.9328125 L6.3015625,6.9328125 C5.89375,6.9328125 5.5625,6.6015625 5.5625,6.19375 C5.5625,6.1859375 5.5625,6.078125 5.5875,5.978125 C5.6046875,5.90625 5.6328125,5.8375 5.659375,5.76875 C5.775,5.4640625 5.9515625,5.184375 6.1765625,4.946875 C6.403125,4.7125 6.675,4.5265625 6.9765625,4.4046875 C7.2890625,4.275 7.6390625,4.2109375 8.025,4.2109375 C8.5234375,4.2109375 8.9390625,4.2796875 9.2734375,4.4171875 C9.6078125,4.5546875 9.875,4.725 10.0796875,4.928125 C10.434375,5.275 10.6390625,5.7484375 10.6484375,6.2453125 C10.6390625,6.578125 10.5953125,6.8546875 10.5078125,7.0734375 L10.5078125,7.0734375 Z" id="形状" fill="#999999"></path>
            </g>
        </g>
    </g>
</svg>