<?xml version="1.0" encoding="UTF-8"?>
<svg width="17px" height="18px" viewBox="0 0 17 18" version="1.1" xmlns="http://www.w3.org/2000/svg" xmlns:xlink="http://www.w3.org/1999/xlink">
    <!-- Generator: Sketch 53 (72520) - https://sketchapp.com -->
    <title>联系客服</title>
    <desc>Created with Sketch.</desc>
    <g id="Page-1" stroke="none" stroke-width="1" fill="none" fill-rule="evenodd">
        <g id="3d试衣复制-copy" transform="translate(-327.000000, -215.000000)">
            <g id="联系客服" transform="translate(327.000000, 216.000000)">
                <g id="添加">
                    <rect id="矩形" fill="#000000" opacity="0" x="0" y="0" width="16" height="16"></rect>
                    <path d="M8.5,16 C4.08173684,16 0.500048,12.4182472 0.500048,7.999984 C0.500048,3.58172084 4.08173684,0 8.5,0 C12.9182952,0 16.499984,3.58172084 16.499984,7.999984 C16.499984,12.4182472 12.9182632,16 8.5,16 Z M8.5,1.00003 C4.63402373,1.00003 1.500046,4.13400773 1.500046,7.999984 C1.500046,11.8659603 4.63402373,14.99997 8.5,14.99997 C12.3660083,14.99997 15.499986,11.8659603 15.499986,7.999984 C15.499986,4.13400773 12.3660083,1.00003 8.5,1.00003 Z M11.499994,8.499983 L8.999967,8.499983 L7.999969,8.499983 L5.500006,8.499983 C5.22387855,8.499983 4.999975,8.27611145 4.999975,7.999984 C4.999975,7.72388855 5.22387855,7.500017 5.500006,7.500017 L7.999969,7.500017 L8.999967,7.500017 L11.499994,7.500017 C11.7761215,7.500017 11.999993,7.72388855 11.999993,7.999984 C11.999993,8.27611145 11.7761535,8.499983 11.499994,8.499983 Z" id="形状" stroke="#333333" fill="#333333" fill-rule="nonzero"></path>
                </g>
            </g>
        </g>
    </g>
</svg>