<?xml version="1.0" encoding="UTF-8"?>
<svg width="14px" height="14px" viewBox="0 0 14 14" version="1.1" xmlns="http://www.w3.org/2000/svg" xmlns:xlink="http://www.w3.org/1999/xlink">
    <!-- Generator: Sketch 53 (72520) - https://sketchapp.com -->
    <title>保存</title>
    <desc>Created with Sketch.</desc>
    <g id="Page-1" stroke="none" stroke-width="1" fill="none" fill-rule="evenodd">
        <g id="购物车--修改" transform="translate(-313.000000, -75.000000)" fill="#000000" fill-rule="nonzero">
            <g id="保存" transform="translate(312.000000, 74.000000)">
                <rect id="矩形" opacity="0" x="0" y="0" width="16" height="16"></rect>
                <path d="M13,14.5 L3,14.5 C2.175,14.5 1.5,13.825 1.5,13 L1.5,3 C1.5,2.175 2.175,1.5 3,1.5 L12,1.5 C12.125,1.5 12.25,1.55 12.35,1.65 L14.35,3.65 C14.45,3.75 14.5,3.875 14.5,4 L14.5,13 C14.5,13.825 13.825,14.5 13,14.5 Z M3,2.5 C2.725,2.5 2.5,2.725 2.5,3 L2.5,13 C2.5,13.275 2.725,13.5 3,13.5 L13,13.5 C13.275,13.5 13.5,13.275 13.5,13 L13.5,4.2 L11.8,2.5 L3,2.5 Z M11.5,14.5 L4.5,14.5 C4.225,14.5 4,14.275 4,14 L4,10.05 C4,9.2 4.7,8.5 5.55,8.5 L10.475,8.5 C11.325,8.5 12.025,9.2 12.025,10.05 L12.025,14 C12,14.275 11.775,14.5 11.5,14.5 Z M5,13.5 L11,13.5 L11,10.05 C11,9.75 10.75,9.5 10.45,9.5 L5.55,9.5 C5.25,9.5 5,9.75 5,10.05 L5,13.5 Z M9.925,6.5 L6.075,6.5 C5.35,6.5 4.75,5.9 4.75,5.175 L4.75,2 C4.75,1.725 4.975,1.5 5.25,1.5 L10.75,1.5 C11.025,1.5 11.25,1.725 11.25,2 L11.25,5.175 C11.25,5.9 10.65,6.5 9.925,6.5 Z M5.75,2.5 L5.75,5.175 C5.75,5.35 5.9,5.5 6.075,5.5 L9.925,5.5 C10.1,5.5 10.25,5.35 10.25,5.175 L10.25,2.5 L5.75,2.5 Z M9,4.75 C8.725,4.75 8.5,4.525 8.5,4.25 L8.5,3.75 C8.5,3.475 8.725,3.25 9,3.25 C9.275,3.25 9.5,3.475 9.5,3.75 L9.5,4.25 C9.5,4.525 9.275,4.75 9,4.75 Z" id="形状"></path>
            </g>
        </g>
    </g>
</svg>