<?xml version="1.0" encoding="UTF-8"?>
<svg width="16px" height="16px" viewBox="0 0 16 16" version="1.1" xmlns="http://www.w3.org/2000/svg" xmlns:xlink="http://www.w3.org/1999/xlink">
    <!-- Generator: Sketch 53 (72520) - https://sketchapp.com -->
    <title>收藏</title>
    <desc>Created with Sketch.</desc>
    <g id="Page-1" stroke="none" stroke-width="1" fill="none" fill-rule="evenodd">
        <g id="个人中心" transform="translate(-28.000000, -389.000000)">
            <g id="收藏" transform="translate(28.000000, 389.000000)">
                <rect id="矩形" fill="#000000" opacity="0" x="0" y="0" width="16" height="16"></rect>
                <path d="M11.635,15.029 C11.3949312,15.0287745 11.1586222,14.9693538 10.947,14.856 L8.005,13.272 L5.064,14.855 C4.58327774,15.1088907 4.00186763,15.0777643 3.551,14.774 C3.10124589,14.4660603 2.86981558,13.9260562 2.957,13.388 L3.533,9.947 L1.047,7.465 C0.666077868,7.09073069 0.534874925,6.53049023 0.71,6.026 C0.884751083,5.52132663 1.32720103,5.15686524 1.856,5.082 L5.237,4.58 L6.706,1.53 C6.94991821,1.03571688 7.45330866,0.722782139 8.0045,0.722782139 C8.55569134,0.722782139 9.05908179,1.03571688 9.303,1.53 L10.772,4.58 L14.153,5.082 C14.686,5.161 15.126,5.522 15.299,6.025 C15.473,6.533 15.344,7.085 14.962,7.465 L12.475,9.947 L13.052,13.389 C13.1387316,13.9264881 12.9078157,14.4658112 12.459,14.774 C12.2164763,14.9404461 11.9291461,15.029365 11.635,15.029 Z M8.004,12.345 C8.07588343,12.3452457 8.14661194,12.3630995 8.21,12.397 L11.357,14.091 C11.5507279,14.1923447 11.7843574,14.179685 11.966,14.058 C12.1381212,13.9431074 12.2272555,13.738255 12.194,13.534 L11.581,9.87 C11.557475,9.73121672 11.6025596,9.58962851 11.702,9.49 L14.348,6.849 C14.4918798,6.70830278 14.5420694,6.49742869 14.477,6.307 C14.4066291,6.11047995 14.2327972,5.96941016 14.026,5.941 L10.417,5.404 C10.2743015,5.38343201 10.1512686,5.29303284 10.089,5.163 L8.519,1.907 C8.42159386,1.71224928 8.2217426,1.59001016 8.004,1.592 C7.78609571,1.59034119 7.5861105,1.71242518 7.488,1.907 L5.92,5.164 C5.85745022,5.29379957 5.73455995,5.38409394 5.592,5.405 L1.983,5.942 C1.77651692,5.97186291 1.60320442,6.11289547 1.532,6.309 C1.46659681,6.49891954 1.51642566,6.70952432 1.66,6.85 L4.306,9.492 C4.40525224,9.5909184 4.45035976,9.73183279 4.427,9.87 L3.814,13.533 C3.78000717,13.7378613 3.86972527,13.9435469 4.043,14.058 C4.218,14.178 4.461,14.192 4.653,14.089 L7.798,12.396 C7.86150604,12.362523 7.93221057,12.3450185 8.004,12.345 Z" id="形状" stroke="#C4A05B" stroke-width="0.2" fill="#BFA065" fill-rule="nonzero"></path>
            </g>
        </g>
    </g>
</svg>