<?xml version="1.0" encoding="UTF-8"?>
<svg width="14px" height="14px" viewBox="0 0 14 14" version="1.1" xmlns="http://www.w3.org/2000/svg" xmlns:xlink="http://www.w3.org/1999/xlink">
    <!-- Generator: Sketch 54 (76480) - https://sketchapp.com -->
    <title>搜索</title>
    <desc>Created with Sketch.</desc>
    <g id="Page-1" stroke="none" stroke-width="1" fill="none" fill-rule="evenodd">
        <g id="面料-筛选" transform="translate(-105.000000, -96.000000)">
            <g id="筛选弹窗" transform="translate(80.000000, 64.000000)">
                <g id="搜索-copy" transform="translate(15.000000, 20.000000)">
                    <g id="搜索" transform="translate(9.000000, 11.000000)">
                        <rect id="矩形" fill="#000000" opacity="0" x="0" y="0" width="16" height="16"></rect>
                        <path d="M4.56003125,5.49732813 C4.56003125,5.99038034 4.95972904,6.39007813 5.45278125,6.39007813 C5.94583346,6.39007813 6.34553125,5.99038034 6.34553125,5.49732812 C6.34553125,5.00427591 5.94583346,4.60457812 5.45278125,4.60457812 C4.95972904,4.60457812 4.56003125,5.00427591 4.56003125,5.49732812 L4.56003125,5.49732813 Z" id="路径" fill="#AAAAAA"></path>
                        <path d="M14.7979062,13.8495625 L11.931,10.9826719 C12.8054687,9.89684375 13.2815781,8.55642187 13.2815781,7.14234375 C13.2815781,5.50285937 12.6429531,3.9615625 11.4837344,2.802125 C9.0905625,0.40915625 5.19673437,0.40928125 2.80376562,2.80223437 C1.6444375,3.96145312 1.00592187,5.50285937 1.00592187,7.14232812 C1.00592187,8.78170312 1.6444375,10.3229844 2.80376562,11.4819844 C3.96853125,12.64675 5.54296875,13.2789531 7.15203125,13.2789531 C7.69583575,13.2791003 8.23722828,13.2066799 8.761875,13.0636094 C9.11854687,12.9663906 9.32898437,12.598375 9.23178125,12.2415781 C9.13446875,11.8846562 8.76579687,11.6745469 8.40964062,11.7716562 C6.75085937,12.2239219 4.96546875,11.7500625 3.7505625,10.5350625 C2.8441875,9.62889062 2.34504687,8.42403125 2.34504687,7.14232812 C2.34504687,5.8605 2.84417187,4.65553125 3.7505625,3.74904687 C5.621625,1.87842187 8.66596875,1.87842187 10.5368125,3.74904687 C11.4431875,4.65542187 11.9423125,5.8605 11.9423125,7.14232812 C11.9423125,8.42404687 11.4432031,9.629 10.5369219,10.5352969 C10.2753594,10.7968437 10.2753594,11.2207656 10.5368125,11.4822187 C10.569625,11.5150312 10.6050312,11.5437031 10.6423281,11.5683125 C10.6673432,11.6062197 10.6961362,11.6414937 10.7282656,11.6735937 L13.8510781,14.7963906 C13.9818594,14.9271719 14.1531562,14.9925312 14.3244844,14.9925312 C14.4958125,14.9925312 14.6671094,14.9271406 14.7978906,14.7963906 C15.0594531,14.5350469 15.0594531,14.1108906 14.7978906,13.8495625 L14.7979062,13.8495625 Z" id="路径" fill="#AAAAAA"></path>
                    </g>
                </g>
            </g>
        </g>
    </g>
</svg>