<?xml version="1.0" encoding="UTF-8"?>
<svg width="22px" height="21px" viewBox="0 0 22 21" version="1.1" xmlns="http://www.w3.org/2000/svg" xmlns:xlink="http://www.w3.org/1999/xlink">
    <!-- Generator: Sketch 54 (76480) - https://sketchapp.com -->
    <title>homepage_fill</title>
    <desc>Created with Sketch.</desc>
    <defs>
        <linearGradient x1="50%" y1="0%" x2="50%" y2="100%" id="linearGradient-1">
            <stop stop-color="#E1CE9E" offset="0%"></stop>
            <stop stop-color="#BFA065" offset="100%"></stop>
        </linearGradient>
    </defs>
    <g id="Page-1" stroke="none" stroke-width="1" fill="none" fill-rule="evenodd">
        <g id="联系客服复制" transform="translate(-178.000000, -105.000000)">
            <g id="homepage_fill" transform="translate(176.000000, 103.000000)">
                <rect id="矩形" fill="#000000" opacity="0" x="0" y="0" width="24" height="24"></rect>
                <path d="M16.3125,20.502 L6.78014062,20.502 L6.78014062,20.4993281 L9.1875,20.5002187 L9.1875,17.1915469 C9.1875,17.1692812 9.19373437,17.1487969 9.19373437,17.1274219 C9.22935937,15.1903125 10.8075469,13.6237031 12.75,13.6237031 C14.6924531,13.6237031 16.2706406,15.1912031 16.3062656,17.1274219 C16.3062656,17.1487969 16.3125,17.1692812 16.3125,17.1915469 L16.3125,20.502 Z M23.017125,8.59879687 L20.765625,7.12392187 L20.765625,4.26590625 C20.765625,3.77402764 20.3668786,3.37528125 19.875,3.37528125 C19.3831214,3.37528125 18.984375,3.77402764 18.984375,4.26590625 L18.984375,5.95809375 L13.2380625,2.19164062 C13.0871157,2.09823408 12.9112335,2.05317593 12.7339687,2.0625 C12.5614753,2.05584992 12.3909201,2.10081447 12.244125,2.19164062 L2.4650625,8.5996875 C2.05360605,8.86923698 1.93856771,9.42130136 2.20811719,9.83275781 C2.47766666,10.2442143 3.02973105,10.3592526 3.4411875,10.0897031 L3.84375,9.8251875 L3.84375,20.765625 C3.84375,21.6028125 4.59989062,22.2850312 5.52970312,22.2850312 L19.9702969,22.2850312 C20.9001094,22.2841406 21.65625,21.6028125 21.65625,20.765625 L21.65625,9.83765625 L22.0418906,10.0897031 C22.4533471,10.3590067 23.0052121,10.243769 23.2745156,9.8323125 C23.5438192,9.42085605 23.4285815,8.86899104 23.017125,8.5996875 L23.017125,8.59879687 Z" id="形状" fill="url(#linearGradient-1)" fill-rule="nonzero"></path>
            </g>
        </g>
    </g>
</svg>