<?xml version="1.0" encoding="UTF-8"?>
<svg width="22px" height="21px" viewBox="0 0 22 21" version="1.1" xmlns="http://www.w3.org/2000/svg" xmlns:xlink="http://www.w3.org/1999/xlink">
    <!-- Generator: Sketch 54 (76480) - https://sketchapp.com -->
    <title>homepage</title>
    <desc>Created with Sketch.</desc>
    <defs>
        <linearGradient x1="50%" y1="0%" x2="50%" y2="100%" id="linearGradient-1">
            <stop stop-color="#E1CE9E" offset="0%"></stop>
            <stop stop-color="#BFA065" offset="100%"></stop>
        </linearGradient>
    </defs>
    <g id="Page-1" stroke="none" stroke-width="1" fill="none" fill-rule="evenodd">
        <g id="联系客服复制" transform="translate(-100.000000, -105.000000)">
            <g id="homepage" transform="translate(98.000000, 103.000000)">
                <rect id="矩形" fill="#000000" opacity="0" x="0" y="0" width="24" height="24"></rect>
                <path d="M19.875,20.5028906 L16.3125,20.502 L16.3125,17.1915469 C16.3120118,15.2233691 14.7181748,13.6271414 12.75,13.6237031 C10.7852812,13.6237031 9.1875,15.2241562 9.1875,17.1915469 L9.1875,20.5002187 L5.625,20.4993281 L5.625,8.65846875 L12.7410937,3.99604687 L19.875,8.66915625 L19.875,20.5028906 Z M14.53125,20.502 L10.96875,20.5011094 L10.96875,17.1915469 C10.96875,16.2065156 11.7676406,15.4049531 12.75,15.4049531 C13.7323594,15.4049531 14.53125,16.2065156 14.53125,17.1915469 L14.53125,20.502 L14.53125,20.502 Z M23.017125,8.59879687 L20.765625,7.12392187 L20.765625,4.26590625 C20.765625,3.77402764 20.3668786,3.37528125 19.875,3.37528125 C19.3831214,3.37528125 18.984375,3.77402764 18.984375,4.26590625 L18.984375,5.95720312 L13.2380625,2.19164062 C13.0871157,2.09823408 12.9112335,2.05317593 12.7339687,2.0625 C12.5614753,2.05584992 12.3909201,2.10081447 12.244125,2.19164062 L2.4650625,8.59879687 C2.05360606,8.86834635 1.93856773,9.42041073 2.2081172,9.83186718 C2.47766667,10.2433236 3.02973105,10.358362 3.4411875,10.0888125 L3.84375,9.8251875 L3.84375,20.7647344 C3.84375,21.6019219 4.60078125,22.2841406 5.52970312,22.2841406 L19.9702969,22.2841406 C20.9001094,22.2841406 21.65625,21.6019219 21.65625,20.7647344 L21.65625,9.83676562 L22.0418906,10.0888125 C22.4533471,10.358116 23.0052121,10.2428783 23.2745156,9.83142187 C23.5438192,9.41996542 23.4285815,8.86810041 23.017125,8.59879687 Z" id="形状" fill="url(#linearGradient-1)" fill-rule="nonzero"></path>
            </g>
        </g>
    </g>
</svg>