<?xml version="1.0" encoding="UTF-8"?>
<svg width="19px" height="18px" viewBox="0 0 19 18" version="1.1" xmlns="http://www.w3.org/2000/svg" xmlns:xlink="http://www.w3.org/1999/xlink">
    <!-- Generator: Sketch 54 (76480) - https://sketchapp.com -->
    <title>面料 copy</title>
    <desc>Created with Sketch.</desc>
    <defs>
        <linearGradient x1="50%" y1="0%" x2="50%" y2="100%" id="linearGradient-1">
            <stop stop-color="#E1CE9E" offset="0%"></stop>
            <stop stop-color="#BFA065" offset="100%"></stop>
        </linearGradient>
        <linearGradient x1="50%" y1="0%" x2="50%" y2="100%" id="linearGradient-2">
            <stop stop-color="#E1CE9E" offset="0%"></stop>
            <stop stop-color="#BFA065" offset="100%"></stop>
        </linearGradient>
        <linearGradient x1="50%" y1="0%" x2="50%" y2="100%" id="linearGradient-3">
            <stop stop-color="#E1CE9E" offset="0%"></stop>
            <stop stop-color="#BFA065" offset="100%"></stop>
        </linearGradient>
    </defs>
    <g id="Page-1" stroke="none" stroke-width="1" fill="none" fill-rule="evenodd">
        <g id="联系客服复制" transform="translate(-258.000000, -176.000000)">
            <g id="面料-copy" transform="translate(258.000000, 176.000000)">
                <rect id="矩形" fill="#000000" opacity="0" x="0" y="0" width="18.2514071" height="18.2514071"></rect>
                <path d="M15.0925536,17.9176372 C14.4386834,17.9176372 13.1184125,17.9176372 12.1968429,17.2774368 L12.1968429,17.3480639 L1.75542494,17.3480639 C0.813350681,17.3480639 0.0467050122,16.5814182 0.0467050122,15.6393439 L0.0467050122,3.25112445 C0.0467050122,2.3090502 0.813350681,1.54240453 1.75542494,1.54240453 L11.4370321,1.54240453 C12.1387464,-1.42108547e-14 14.2142715,-1.42108547e-14 15.0925536,-1.42108547e-14 C16.0665239,-1.42108547e-14 18.5202457,-1.42108547e-14 18.9269211,2.11197783 L18.9850176,2.11197783 L18.9816001,15.3329135 C18.8665463,17.9176372 16.1348727,17.9176372 15.0925536,17.9176372 Z" id="路径" fill="#FFFFFF" fill-rule="nonzero"></path>
                <path d="M15.0925536,13.550149 C12.7994514,13.550149 12.3392362,14.1675665 12.3392362,15.1643198 C12.3392362,16.1610731 12.7994514,16.7784905 15.0925536,16.7784905 C17.3856557,16.7784905 17.8458709,16.1610731 17.8458709,15.1643198 C17.8458709,14.1675665 17.3856557,13.550149 15.0925536,13.550149 Z" id="路径" fill="url(#linearGradient-1)" fill-rule="nonzero"></path>
                <path d="M1.75542494,2.68155113 C1.44102048,2.68155113 1.18585163,2.93671997 1.18585163,3.25112444 L1.18585163,15.6393439 C1.18585163,15.9526092 1.44102048,16.2089172 1.75542494,16.2089172 L11.2000896,16.2089172 L11.2000896,2.68155113 L1.75542494,2.68155113 Z" id="路径" fill="url(#linearGradient-2)" fill-rule="nonzero"></path>
                <path d="M15.0925536,12.4110024 C15.7145276,12.4110024 16.9356928,12.4110024 17.8458709,12.9577928 L17.8458709,2.75217823 C17.8458709,1.75542494 17.3856557,1.13800748 15.0925536,1.13800748 C12.7994514,1.13800748 12.3392362,1.75542494 12.3392362,2.75217823 L12.3392362,12.9577928 C13.2494143,12.4110024 14.4705795,12.4110024 15.0925536,12.4110024 Z" id="路径" fill="url(#linearGradient-3)" fill-rule="nonzero"></path>
            </g>
        </g>
    </g>
</svg>