<?xml version="1.0" encoding="UTF-8"?>
<svg width="24px" height="22px" viewBox="0 0 24 22" version="1.1" xmlns="http://www.w3.org/2000/svg" xmlns:xlink="http://www.w3.org/1999/xlink">
    <!-- Generator: Sketch 54 (76480) - https://sketchapp.com -->
    <title>面料</title>
    <desc>Created with Sketch.</desc>
    <defs>
        <linearGradient x1="50%" y1="0%" x2="50%" y2="100%" id="linearGradient-1">
            <stop stop-color="#E1CE9E" offset="0%"></stop>
            <stop stop-color="#BFA065" offset="100%"></stop>
        </linearGradient>
    </defs>
    <g id="Page-1" stroke="none" stroke-width="1" fill="none" fill-rule="evenodd">
        <g id="联系客服复制" transform="translate(-100.000000, -174.000000)">
            <g id="面料" transform="translate(99.000000, 173.000000)">
                <rect id="矩形" fill="#000000" opacity="0" x="0" y="0" width="24" height="24"></rect>
                <path d="M19.3754887,22.5 C18.5986466,22.5 17.0300752,22.5 15.935188,21.7496662 L15.935188,21.8324432 L3.53007518,21.8324432 C2.41082706,21.8324432 1.5,20.9339119 1.5,19.829773 L1.5,5.31041389 C1.5,4.20627503 2.41082706,3.30774367 3.53007518,3.30774367 L15.0324812,3.30774367 C15.8661654,1.5 18.3320301,1.5 19.3754887,1.5 C20.5326316,1.5 23.4478196,1.5 23.9309774,3.9753004 L24,3.9753004 L23.9959398,19.4706275 C23.8592481,22.5 20.6138346,22.5 19.3754887,22.5 Z M19.3754887,17.3811749 C16.6511278,17.3811749 16.1043609,18.1048064 16.1043609,19.2730307 C16.1043609,20.441255 16.6511278,21.1648865 19.3754887,21.1648865 C22.0998496,21.1648865 22.6466165,20.441255 22.6466165,19.2730307 C22.6466165,18.1048064 22.0998496,17.3811749 19.3754887,17.3811749 Z M3.53007518,4.64285713 C3.15654136,4.64285713 2.85338346,4.94192255 2.85338346,5.31041387 L2.85338346,19.829773 C2.85338346,20.1969292 3.15654136,20.4973297 3.53007518,20.4973297 L14.7509774,20.4973297 L14.7509774,4.64285713 L3.53007518,4.64285713 Z M19.3754887,16.0460614 C20.1144361,16.0460614 21.5652632,16.0460614 22.6466165,16.6869159 L22.6466165,4.72563418 C22.6466165,3.55740987 22.0998496,2.83377838 19.3754887,2.83377838 C16.6511278,2.83377838 16.1043609,3.55740987 16.1043609,4.72563418 L16.1043609,16.6869159 C17.1857143,16.0460614 18.6365414,16.0460614 19.3754887,16.0460614 Z" id="形状" stroke="url(#linearGradient-1)" stroke-width="0.3" fill="url(#linearGradient-1)" fill-rule="nonzero"></path>
            </g>
        </g>
    </g>
</svg>