<?xml version="1.0" encoding="UTF-8"?>
<svg width="18px" height="17px" viewBox="0 0 18 17" version="1.1" xmlns="http://www.w3.org/2000/svg" xmlns:xlink="http://www.w3.org/1999/xlink">
    <!-- Generator: Sketch 54 (76480) - https://sketchapp.com -->
    <title>addressbook_fill</title>
    <desc>Created with Sketch.</desc>
    <defs>
        <linearGradient x1="50%" y1="0%" x2="50%" y2="100%" id="linearGradient-1">
            <stop stop-color="#E1CE9E" offset="0%"></stop>
            <stop stop-color="#BFA065" offset="100%"></stop>
        </linearGradient>
    </defs>
    <g id="Page-1" stroke="none" stroke-width="1" fill="none" fill-rule="evenodd">
        <g id="联系客服复制" transform="translate(-259.000000, -317.000000)">
            <g id="addressbook_fill" transform="translate(259.000000, 316.000000)">
                <rect id="矩形" fill="#000000" opacity="0" x="0" y="0" width="19" height="19"></rect>
                <path d="M17.1,7.66337102 L14.25,7.66337102 C13.8564971,7.66337102 13.5375,7.9855206 13.5375,8.38291225 C13.5375,8.78030389 13.8564971,9.10245347 14.25,9.10245347 L17.1,9.10245347 C17.4935029,9.10245347 17.8125,8.78030389 17.8125,8.38291225 C17.8125,7.9855206 17.4935029,7.66337102 17.1,7.66337102 M17.1,4.78520612 L14.25,4.78520612 C13.8564971,4.78520612 13.5375,5.1073557 13.5375,5.50474735 C13.5375,5.90213899 13.8564971,6.22428857 14.25,6.22428857 L17.1,6.22428857 C17.4935029,6.22428857 17.8125,5.90213899 17.8125,5.50474735 C17.8125,5.1073557 17.4935029,4.78520612 17.1,4.78520612 M14.25,3.34612367 L17.1,3.34612367 C17.4935029,3.34612367 17.8125,3.0239741 17.8125,2.62658245 C17.8125,2.2291908 17.4935029,1.90704122 17.1,1.90704122 L14.25,1.90704122 C13.8564971,1.90704122 13.5375,2.2291908 13.5375,2.62658245 C13.5375,3.0239741 13.8564971,3.34612367 14.25,3.34612367 M14.556375,11.9806184 C14.442375,11.9295309 12.3918,11.0236285 10.13175,10.569598 C10.3946625,10.3530161 10.6248,10.0990181 10.8243,9.8219947 C11.3125749,9.14871365 11.5760831,8.33601296 11.5767,7.50147425 L11.5767,5.14569628 C11.5738342,3.88711371 10.9794052,2.70466553 9.975,1.95956773 C9.30644169,1.45861224 8.49613957,1.1879444 7.66365,1.1875 C5.5054875,1.1875 3.7498875,2.96332774 3.7498875,5.14569628 L3.7498875,7.50147425 C3.7498875,8.77290359 4.3483875,9.90330286 5.2725,10.6286004 C3.1243125,11.0970217 1.2347625,11.9288114 1.141425,11.9712643 C0.4902,12.235336 0,12.9743048 0,13.6895288 L0,16.6511605 L0.038475,16.7641284 C0.2500875,17.3915684 0.8208,17.8125 1.4584875,17.8125 L14.2165125,17.8125 C14.9575125,17.8125 15.570975,17.2534165 15.6628875,16.5317166 L15.675,13.6895288 C15.675,13.3470272 15.559575,12.9987692 15.3707625,12.7001596 C15.1684125,12.3792442 14.8819875,12.1151726 14.556375,11.9806184" id="形状" fill="url(#linearGradient-1)" fill-rule="nonzero"></path>
            </g>
        </g>
    </g>
</svg>