<?xml version="1.0" encoding="UTF-8"?>
<svg width="23px" height="22px" viewBox="0 0 23 22" version="1.1" xmlns="http://www.w3.org/2000/svg" xmlns:xlink="http://www.w3.org/1999/xlink">
    <!-- Generator: Sketch 54 (76480) - https://sketchapp.com -->
    <title>addressbook</title>
    <desc>Created with Sketch.</desc>
    <defs>
        <linearGradient x1="50%" y1="0%" x2="50%" y2="100%" id="linearGradient-1">
            <stop stop-color="#E1CE9E" offset="0%"></stop>
            <stop stop-color="#BFA065" offset="100%"></stop>
        </linearGradient>
    </defs>
    <g id="Page-1" stroke="none" stroke-width="1" fill="none" fill-rule="evenodd">
        <g id="联系客服复制" transform="translate(-101.000000, -314.000000)">
            <g id="addressbook" transform="translate(101.000000, 313.000000)">
                <rect id="矩形" fill="#000000" opacity="0" x="0" y="0" width="24" height="24"></rect>
                <path d="M21.6,6.04427421 L18,6.04427421 C17.5029437,6.04427421 17.1,6.45118239 17.1,6.95312906 C17.1,7.45507573 17.5029437,7.8619839 18,7.8619839 L21.6,7.8619839 C22.0970563,7.8619839 22.5,7.45507573 22.5,6.95312906 C22.5,6.45118239 22.0970563,6.04427421 21.6,6.04427421 L21.6,6.04427421 Z M21.6,9.67969359 L18,9.67969359 C17.5029437,9.67969359 17.1,10.0866018 17.1,10.5885484 C17.1,11.0904951 17.5029437,11.4974033 18,11.4974033 L21.6,11.4974033 C22.0970563,11.4974033 22.5,11.0904951 22.5,10.5885484 C22.5,10.0866018 22.0970563,9.67969359 21.6,9.67969359 L21.6,9.67969359 Z M18,4.22656453 L21.6,4.22656453 C22.0970563,4.22656453 22.5,3.81965636 22.5,3.31770969 C22.5,2.81576302 22.0970563,2.40885484 21.6,2.40885484 L18,2.40885484 C17.5029437,2.40885484 17.1,2.81576302 17.1,3.31770969 C17.1,3.81965636 17.5029437,4.22656453 18,4.22656453 L18,4.22656453 Z M18,20.6813815 L1.8423,20.6813815 C1.8306,20.6813815 1.8153,20.6741106 1.8,20.6622955 L1.8,17.2913529 C1.8,17.1250325 1.9665,16.8678265 2.1402,16.7951182 C2.1843,16.7769411 6.5529,14.8456245 9.9,14.8456245 C13.2399,14.8456245 17.6166,16.7760322 17.6814,16.8051156 C17.8308,16.8678265 18,17.1268502 18,17.2913529 L18,20.6813815 Z M6.5367,9.47520125 L6.5367,6.49961049 C6.53669653,4.74527866 7.94316385,3.3221272 9.6804,3.31861854 C11.4172845,3.32262763 12.8232045,4.74563267 12.8232,6.49961049 L12.8232,9.47520125 C12.8241974,11.2298885 11.4179874,12.6540005 9.6804,12.6580109 C7.94287301,12.6535016 6.53669426,11.2298291 6.5367,9.47520125 L6.5367,9.47520125 Z M18.387,15.1337315 C18.243,15.0692028 15.6528,13.9249546 12.798,13.3514672 C13.9527855,12.4027772 14.6231571,10.9794103 14.6232,9.4761101 L14.6232,6.50051935 C14.6232,3.74396261 12.4056,1.5 9.6804,1.5 C6.9543,1.5 4.7367,3.74305375 4.7367,6.49870164 L4.7367,9.47520125 C4.7367,11.0811478 5.4927,12.5089587 6.66,13.4250844 C3.9465,14.01584 1.5597,15.0673851 1.4418,15.1210075 C0.6192,15.4554661 0,16.38886 0,17.2922618 L0,21.0331083 L0.0486,21.1757985 C0.3159,21.9683199 1.0368,22.5 1.8423,22.5 L17.9577,22.5 C18.8937,22.5 19.6686,21.7938198 19.7847,20.8822384 L19.8,17.2922618 C19.8,16.395222 19.1826,15.462737 18.387,15.1337315 Z" id="形状" fill="url(#linearGradient-1)" fill-rule="nonzero"></path>
            </g>
        </g>
    </g>
</svg>