<?xml version="1.0" encoding="UTF-8"?>
<svg width="19px" height="21px" viewBox="0 0 19 21" version="1.1" xmlns="http://www.w3.org/2000/svg" xmlns:xlink="http://www.w3.org/1999/xlink">
    <!-- Generator: Sketch 54 (76480) - https://sketchapp.com -->
    <title>service</title>
    <desc>Created with Sketch.</desc>
    <defs>
        <linearGradient x1="50%" y1="0%" x2="50%" y2="100%" id="linearGradient-1">
            <stop stop-color="#E1CE9E" offset="0%"></stop>
            <stop stop-color="#BFA065" offset="100%"></stop>
        </linearGradient>
    </defs>
    <g id="Page-1" stroke="none" stroke-width="1" fill="none" fill-rule="evenodd">
        <g id="联系客服复制" transform="translate(-101.000000, -245.000000)">
            <g id="service" transform="translate(98.000000, 244.000000)">
                <rect id="矩形" fill="#000000" opacity="0" x="0" y="0" width="24" height="24"></rect>
                <path d="M4.72727273,20.32504 L4.72727273,6.88 L20.2727273,6.87412 L20.2796364,20.32 L4.72727273,20.32504 Z M12.5,2.68 C13.9284545,2.68 15.0909091,3.8098 15.0909091,5.2 L9.90909091,5.2 C9.90909091,3.8098 11.0715455,2.68 12.5,2.68 Z M20.2796364,5.2 L16.8181818,5.2 C16.8181818,2.88412 14.8810455,1 12.5,1 C10.1189545,1 8.18181818,2.88412 8.18181818,5.2 L4.72036364,5.2 C3.77048801,5.20138883 3.00095118,5.95024039 3,6.87412 L3,20.32504 C3,21.24904 3.77209091,22 4.72036364,22 L20.2796364,22 C21.2296516,21.9981487 21.99905,21.2490563 22,20.32504 L22,6.87412 C21.9990488,5.95024039 21.229512,5.20138883 20.2796364,5.2 Z M17.5911364,14.55256 C17.1783022,14.3204703 16.6501984,14.4577195 16.4114091,14.85916 C15.6375036,16.1570528 14.2127253,16.9571098 12.6701364,16.96 C11.127986,16.9571567 9.70356697,16.1574367 8.92972727,14.86 C8.69100219,14.458246 8.16262697,14.3207884 7.74956818,14.55298 C7.3365094,14.7851716 7.19518401,15.299086 7.43390909,15.70084 C8.51758389,17.5167956 10.5113823,18.6362595 12.6701364,18.64084 C14.8290803,18.636946 16.8232051,17.5172989 17.9063636,15.70084 C18.0212297,15.507936 18.0525491,15.278534 17.9934239,15.0631581 C17.9342986,14.8477822 17.7895782,14.6640977 17.5911364,14.55256 L17.5911364,14.55256 Z" id="形状" fill="url(#linearGradient-1)" fill-rule="nonzero"></path>
            </g>
        </g>
    </g>
</svg>