<?xml version="1.0" encoding="UTF-8"?>
<svg width="19px" height="21px" viewBox="0 0 19 21" version="1.1" xmlns="http://www.w3.org/2000/svg" xmlns:xlink="http://www.w3.org/1999/xlink">
    <!-- Generator: Sketch 54 (76480) - https://sketchapp.com -->
    <title>service_fill</title>
    <desc>Created with Sketch.</desc>
    <defs>
        <linearGradient x1="50%" y1="0%" x2="50%" y2="100%" id="linearGradient-1">
            <stop stop-color="#E1CE9E" offset="0%"></stop>
            <stop stop-color="#BFA065" offset="100%"></stop>
        </linearGradient>
    </defs>
    <g id="Page-1" stroke="none" stroke-width="1" fill="none" fill-rule="evenodd">
        <g id="联系客服复制" transform="translate(-179.000000, -245.000000)">
            <g id="service_fill" transform="translate(176.000000, 244.000000)">
                <rect id="矩形" fill="#000000" opacity="0" x="0" y="0" width="24" height="24"></rect>
                <path d="M17.9063636,15.7 C16.8234894,17.5163259 14.8296828,18.635979 12.671,18.64 C10.5118423,18.6360612 8.51748105,17.516466 7.43390909,15.7 C7.26372145,15.4396092 7.25400697,15.1094279 7.40860637,14.8399972 C7.56320578,14.5705665 7.85723038,14.4052616 8.17443416,14.4094375 C8.49163794,14.4136135 8.7809548,14.5865982 8.928,14.86 C9.70320812,16.1573326 11.1282557,16.9568517 12.671,16.96 C14.2129842,16.9573733 15.6372485,16.1575555 16.4105455,14.86 C16.5637214,14.5979613 16.8495087,14.4358393 17.1594204,14.4351766 C17.469332,14.434514 17.7558494,14.5954123 17.9102084,14.8567934 C18.0645674,15.1181744 18.0631001,15.4399609 17.9063636,15.7 M20.2796364,5.2 L4.72036364,5.2 C3.7706277,5.20092606 3.00095212,5.94953683 3,6.87328 L3,20.3242 C3,21.24904 3.77122727,22 4.72036364,22 L20.2796364,22 C21.2296516,21.9981487 21.99905,21.2490563 22,20.32504 L22,6.87412 C21.9990488,5.95024039 21.229512,5.20138883 20.2796364,5.2 M12.5,2.68 C13.9284545,2.68 15.0909091,3.81064 15.0909091,5.2 L16.8181818,5.2 C16.8181818,2.88412 14.8810455,1 12.5,1 C10.1189545,1 8.18181818,2.88412 8.18181818,5.2 L9.90909091,5.2 C9.90909091,3.81064 11.0715455,2.68 12.5,2.68" id="形状" fill="url(#linearGradient-1)" fill-rule="nonzero"></path>
            </g>
        </g>
    </g>
</svg>